<?xml version="1.0" encoding="UTF-8"?>
<svg version="1.1" xmlns="http://www.w3.org/2000/svg" width="465" height="1485">
<path d="M0 0 C1.41015625 2.0625 1.41015625 2.0625 3.0625 5 C3.68253906 6.09570312 4.30257813 7.19140625 4.94140625 8.3203125 C5.27414551 8.91618164 5.60688477 9.51205078 5.94970703 10.12597656 C7.02618716 12.04672539 8.11878368 13.95755214 9.21484375 15.8671875 C12.96439468 22.42407801 16.62089641 29.02566353 20.0625 35.75 C20.63097656 36.85859375 21.19945312 37.9671875 21.78515625 39.109375 C23 42 23 42 23 46 C17.375 49 17.375 49 14 49 C13.67128906 48.07960937 13.34257812 47.15921875 13.00390625 46.2109375 C9.68615085 37.25943784 5.51304334 29.61393965 0.16113281 21.73486328 C-1.79905027 18.80612884 -3.65135218 15.81243193 -5.5 12.8125 C-6.1496875 11.76707031 -6.799375 10.72164062 -7.46875 9.64453125 C-9 7 -9 7 -10 4 C-8.71086513 3.32845067 -7.41859796 2.66291141 -6.125 2 C-5.40570313 1.62875 -4.68640625 1.2575 -3.9453125 0.875 C-2 0 -2 0 0 0 Z " fill="#EF7F22" transform="translate(434,56)"/>
<path d="M0 0 C0.79744629 0.20858643 1.59489258 0.41717285 2.41650391 0.63208008 C12.47705571 3.04818559 22.07368437 3.53970036 32.375 3.6875 C33.99742157 3.72077295 35.61981849 3.75527128 37.2421875 3.79101562 C41.16131887 3.87475425 45.08040548 3.94208599 49 4 C49 6.97 49 9.94 49 13 C43.84459483 13.07514606 38.68952069 13.12906334 33.53369141 13.16479492 C31.78623896 13.17971807 30.03882285 13.20006399 28.29150391 13.22631836 C17.66771596 13.38174383 7.18893116 13.49770787 -3 10 C-3.33 9.34 -3.66 8.68 -4 8 C-2.88939218 5.22068998 -1.40526549 2.64019577 0 0 Z " fill="#EF7F22" transform="translate(112,1472)"/>
<path d="M0 0 C16.17 0 32.34 0 49 0 C49 2.97 49 5.94 49 9 C32.83 9 16.66 9 0 9 C0 6.03 0 3.06 0 0 Z " fill="#EF7F22" transform="translate(400,1476)"/>
<path d="M0 0 C16.17 0 32.34 0 49 0 C49 2.97 49 5.94 49 9 C32.83 9 16.66 9 0 9 C0 6.03 0 3.06 0 0 Z " fill="#EF7F22" transform="translate(304,1476)"/>
<path d="M0 0 C16.17 0 32.34 0 49 0 C49 2.97 49 5.94 49 9 C32.83 9 16.66 9 0 9 C0 6.03 0 3.06 0 0 Z " fill="#EF7F22" transform="translate(208,1476)"/>
<path d="M0 0 C2.97 0 5.94 0 9 0 C9 16.17 9 32.34 9 49 C6.03 49 3.06 49 0 49 C0 32.83 0 16.66 0 0 Z " fill="#EF7F22" transform="translate(456,1396)"/>
<path d="M0 0 C2.97 0 5.94 0 9 0 C9 16.17 9 32.34 9 49 C6.03 49 3.06 49 0 49 C0 32.83 0 16.66 0 0 Z " fill="#EF7F22" transform="translate(456,1300)"/>
<path d="M0 0 C2.97 0 5.94 0 9 0 C9 16.17 9 32.34 9 49 C6.03 49 3.06 49 0 49 C0 32.83 0 16.66 0 0 Z " fill="#EF7F22" transform="translate(0,1240)"/>
<path d="M0 0 C2.97 0 5.94 0 9 0 C9 16.17 9 32.34 9 49 C6.03 49 3.06 49 0 49 C0 32.83 0 16.66 0 0 Z " fill="#EF7F22" transform="translate(456,1204)"/>
<path d="M0 0 C2.97 0 5.94 0 9 0 C9 16.17 9 32.34 9 49 C6.03 49 3.06 49 0 49 C0 32.83 0 16.66 0 0 Z " fill="#EF7F22" transform="translate(0,1144)"/>
<path d="M0 0 C2.97 0 5.94 0 9 0 C9 16.17 9 32.34 9 49 C6.03 49 3.06 49 0 49 C0 32.83 0 16.66 0 0 Z " fill="#EF7F22" transform="translate(456,1108)"/>
<path d="M0 0 C2.97 0 5.94 0 9 0 C9 16.17 9 32.34 9 49 C6.03 49 3.06 49 0 49 C0 32.83 0 16.66 0 0 Z " fill="#EF7F22" transform="translate(0,1048)"/>
<path d="M0 0 C2.97 0 5.94 0 9 0 C9 16.17 9 32.34 9 49 C6.03 49 3.06 49 0 49 C0 32.83 0 16.66 0 0 Z " fill="#EF7F22" transform="translate(456,1012)"/>
<path d="M0 0 C2.97 0 5.94 0 9 0 C9 16.17 9 32.34 9 49 C6.03 49 3.06 49 0 49 C0 32.83 0 16.66 0 0 Z " fill="#EF7F22" transform="translate(0,952)"/>
<path d="M0 0 C2.97 0 5.94 0 9 0 C9 16.17 9 32.34 9 49 C6.03 49 3.06 49 0 49 C0 32.83 0 16.66 0 0 Z " fill="#EF7F22" transform="translate(456,916)"/>
<path d="M0 0 C2.97 0 5.94 0 9 0 C9 16.17 9 32.34 9 49 C6.03 49 3.06 49 0 49 C0 32.83 0 16.66 0 0 Z " fill="#EF7F22" transform="translate(0,856)"/>
<path d="M0 0 C2.97 0 5.94 0 9 0 C9 16.17 9 32.34 9 49 C6.03 49 3.06 49 0 49 C0 32.83 0 16.66 0 0 Z " fill="#EF7F22" transform="translate(456,820)"/>
<path d="M0 0 C2.97 0 5.94 0 9 0 C9 16.17 9 32.34 9 49 C6.03 49 3.06 49 0 49 C0 32.83 0 16.66 0 0 Z " fill="#EF7F22" transform="translate(0,760)"/>
<path d="M0 0 C2.97 0 5.94 0 9 0 C9 16.17 9 32.34 9 49 C6.03 49 3.06 49 0 49 C0 32.83 0 16.66 0 0 Z " fill="#EF7F22" transform="translate(456,724)"/>
<path d="M0 0 C2.97 0 5.94 0 9 0 C9 16.17 9 32.34 9 49 C6.03 49 3.06 49 0 49 C0 32.83 0 16.66 0 0 Z " fill="#EF7F22" transform="translate(0,664)"/>
<path d="M0 0 C2.97 0 5.94 0 9 0 C9 16.17 9 32.34 9 49 C6.03 49 3.06 49 0 49 C0 32.83 0 16.66 0 0 Z " fill="#EF7F22" transform="translate(456,628)"/>
<path d="M0 0 C2.97 0 5.94 0 9 0 C9 16.17 9 32.34 9 49 C6.03 49 3.06 49 0 49 C0 32.83 0 16.66 0 0 Z " fill="#EF7F22" transform="translate(0,568)"/>
<path d="M0 0 C2.97 0 5.94 0 9 0 C9 16.17 9 32.34 9 49 C6.03 49 3.06 49 0 49 C0 32.83 0 16.66 0 0 Z " fill="#EF7F22" transform="translate(456,532)"/>
<path d="M0 0 C2.97 0 5.94 0 9 0 C9 16.17 9 32.34 9 49 C6.03 49 3.06 49 0 49 C0 32.83 0 16.66 0 0 Z " fill="#EF7F22" transform="translate(0,472)"/>
<path d="M0 0 C2.97 0 5.94 0 9 0 C9 16.17 9 32.34 9 49 C6.03 49 3.06 49 0 49 C0 32.83 0 16.66 0 0 Z " fill="#EF7F22" transform="translate(456,436)"/>
<path d="M0 0 C2.97 0 5.94 0 9 0 C9 16.17 9 32.34 9 49 C6.03 49 3.06 49 0 49 C0 32.83 0 16.66 0 0 Z " fill="#EF7F22" transform="translate(0,376)"/>
<path d="M0 0 C2.97 0 5.94 0 9 0 C9 16.17 9 32.34 9 49 C6.03 49 3.06 49 0 49 C0 32.83 0 16.66 0 0 Z " fill="#EF7F22" transform="translate(456,340)"/>
<path d="M0 0 C2.97 0 5.94 0 9 0 C9 16.17 9 32.34 9 49 C6.03 49 3.06 49 0 49 C0 32.83 0 16.66 0 0 Z " fill="#EF7F22" transform="translate(0,280)"/>
<path d="M0 0 C2.97 0 5.94 0 9 0 C9 16.17 9 32.34 9 49 C6.03 49 3.06 49 0 49 C0 32.83 0 16.66 0 0 Z " fill="#EF7F22" transform="translate(456,244)"/>
<path d="M0 0 C2.97 0 5.94 0 9 0 C9 16.17 9 32.34 9 49 C6.03 49 3.06 49 0 49 C0 32.83 0 16.66 0 0 Z " fill="#EF7F22" transform="translate(0,184)"/>
<path d="M0 0 C2.97 0 5.94 0 9 0 C9 16.17 9 32.34 9 49 C6.03 49 3.06 49 0 49 C0 32.83 0 16.66 0 0 Z " fill="#EF7F22" transform="translate(456,148)"/>
<path d="M0 0 C2.97 0 5.94 0 9 0 C9 16.17 9 32.34 9 49 C6.03 49 3.06 49 0 49 C0 32.83 0 16.66 0 0 Z " fill="#EF7F22" transform="translate(0,88)"/>
<path d="M0 0 C16.17 0 32.34 0 49 0 C49 2.97 49 5.94 49 9 C32.83 9 16.66 9 0 9 C0 6.03 0 3.06 0 0 Z " fill="#EF7F22" transform="translate(256,0)"/>
<path d="M0 0 C16.17 0 32.34 0 49 0 C49 2.97 49 5.94 49 9 C32.83 9 16.66 9 0 9 C0 6.03 0 3.06 0 0 Z " fill="#EF7F22" transform="translate(160,0)"/>
<path d="M0 0 C16.17 0 32.34 0 49 0 C49 2.97 49 5.94 49 9 C32.83 9 16.66 9 0 9 C0 6.03 0 3.06 0 0 Z " fill="#EF7F22" transform="translate(64,0)"/>
<path d="M0 0 C5.61 0 11.22 0 17 0 C17 2.97 17 5.94 17 9 C14.36 9 11.72 9 9 9 C9 19.56 9 30.12 9 41 C6.03 41 3.06 41 0 41 C0 27.47 0 13.94 0 0 Z " fill="#EF7F22" transform="translate(0,0)"/>
<path d="M0 0 C1.11328125 1.93359375 1.11328125 1.93359375 2.3125 4.4375 C6.17246497 11.17559346 11.89161365 14.69688902 18.24902344 18.84814453 C20.8328706 20.54789229 23.35098566 22.33805538 25.875 24.125 C27.24949721 25.08405432 28.62427943 26.04270136 30 27 C29.38550003 30.33822957 28.65439171 33.02209492 27 36 C16.22968955 34.71681613 6.66791795 21.92345107 -0.6875 14.4375 C-1.69678641 13.41814509 -2.7065501 12.39926251 -3.71679688 11.38085938 C-6.15002808 8.92596411 -8.57684143 6.46484318 -11 4 C-3.98726926 -1.32908975 -3.98726926 -1.32908975 0 0 Z " fill="#EF7F22" transform="translate(39,1425)"/>
<path d="M0 0 C12.44804712 2.22286556 23.83122528 7.09648183 34.875 13.125 C36.04373657 13.75438477 36.04373657 13.75438477 37.23608398 14.39648438 C37.95997314 14.80447266 38.6838623 15.21246094 39.4296875 15.6328125 C40.39237549 16.17252686 40.39237549 16.17252686 41.37451172 16.72314453 C43.32286714 18.25361898 44.05078023 19.73702667 45 22 C43.75 23.5625 43.75 23.5625 42 25 C38.56587198 24.52450535 35.75327696 22.92655695 32.6875 21.375 C23.62696476 17.10272029 14.03815633 14.51712673 4.44189453 11.72460938 C1.60454203 10.88265154 -1.20241896 9.96566249 -4 9 C-2.68 6.03 -1.36 3.06 0 0 Z " fill="#EF7F22" transform="translate(352,4)"/>
<path d="M0 0 C2.97 0 5.94 0 9 0 C9.0501123 0.88671387 9.10022461 1.77342773 9.15185547 2.68701172 C9.3438171 6.02348763 9.54215976 9.35946389 9.74462891 12.6953125 C9.8304633 14.13038645 9.91386061 15.56560857 9.99462891 17.00097656 C10.41254418 24.39962471 10.8509544 31.66000178 12.60205078 38.89111328 C13.06131886 41.32495236 13.15185571 43.52861272 13 46 C11.625 47.8125 11.625 47.8125 10 49 C9.34 49 8.68 49 8 49 C0.08407303 33.81106398 -0.22297667 16.74802551 0 0 Z " fill="#EF7F22" transform="translate(0,1336)"/>
</svg>
