<?xml version="1.0" encoding="UTF-8"?>
<svg version="1.1" xmlns="http://www.w3.org/2000/svg" width="1941" height="1485">
<path d="M0 0 C3.40312738 1.05875074 6.01353231 2.00902154 9 4 C7.71104283 6.81351786 6.33731495 8.9325707 4.20703125 11.171875 C3.39081299 12.0386084 3.39081299 12.0386084 2.55810547 12.92285156 C1.98205566 13.52581055 1.40600586 14.12876953 0.8125 14.75 C-0.37729576 16.00947871 -1.5661073 17.26988795 -2.75390625 18.53125 C-3.32125488 19.13324219 -3.88860352 19.73523437 -4.47314453 20.35546875 C-6.25162117 22.27101378 -7.94614746 24.24687031 -9.625 26.25 C-20.84256055 39.21064014 -20.84256055 39.21064014 -28 41 C-29.32 38.03 -30.64 35.06 -32 32 C-26.08682061 25.94528174 -19.90652628 20.3484511 -13.484375 14.84375 C-8.27760925 10.29172725 -3.85641463 5.75326898 0 0 Z " fill="#EF7F22" transform="translate(1912,1416)"/>
<path d="M0 0 C2 1 2 1 2.65429688 2.92675781 C2.84056641 3.76045898 3.02683594 4.59416016 3.21875 5.453125 C3.42798096 6.37585205 3.63721191 7.2985791 3.8527832 8.24926758 C4.06636475 9.23950928 4.27994629 10.22975098 4.5 11.25 C4.72067139 12.25764404 4.94134277 13.26528809 5.16870117 14.3034668 C8.00184717 27.42668348 9.2887616 39.60467039 9 53 C6.03 53 3.06 53 0 53 C-0.12955078 50.87498047 -0.12955078 50.87498047 -0.26171875 48.70703125 C-1.16081245 35.73808167 -3.13963144 23.5684898 -6.48095703 11.01074219 C-7.0801167 8.68963256 -7.57162869 6.35844879 -8 4 C-6.71349294 3.30289269 -5.42059335 2.61757124 -4.125 1.9375 C-3.40570312 1.55464844 -2.68640625 1.17179687 -1.9453125 0.77734375 C-1.30335937 0.52082031 -0.66140625 0.26429687 0 0 Z " fill="#EF7F22" transform="translate(1552,1044)"/>
<path d="M0 0 C4.7247388 10.9834837 8.78472281 21.97459723 12 33.5 C12.30236572 34.57950928 12.60473145 35.65901855 12.91625977 36.77124023 C14.07341018 41.03558516 15 44.55367847 15 49 C12.03 49 9.06 49 6 49 C5.59910156 47.58332031 5.19820312 46.16664062 4.78515625 44.70703125 C0.80794928 30.9879816 -4.05769064 17.98624862 -10 5 C-3.45205479 0 -3.45205479 0 0 0 Z " fill="#EF7F22" transform="translate(1926,76)"/>
<path d="M0 0 C2.93917421 1.32711079 5.03110214 2.77500565 7.3125 5.046875 C7.91320312 5.645 8.51390625 6.243125 9.1328125 6.859375 C9.74898438 7.48328125 10.36515625 8.1071875 11 8.75 C11.61617188 9.3584375 12.23234375 9.966875 12.8671875 10.59375 C15.62718607 13.36559406 17.96324785 15.94436601 20.12890625 19.22265625 C22.13264617 22.19689233 23.96338304 23.72155828 26.9375 25.6875 C28.18853516 26.52861328 28.18853516 26.52861328 29.46484375 27.38671875 C31.95167939 28.96925052 34.46371637 30.49819341 37 32 C36.44271087 35.34373475 35.64826111 38.03312999 34 41 C24.32933822 39.64745989 16.93458688 30.16870741 10.25 23.625 C9.1686377 22.58279297 9.1686377 22.58279297 8.06542969 21.51953125 C3.03262182 16.50301079 -0.61415265 11.23972537 -4 5 C-2.68 3.35 -1.36 1.7 0 0 Z " fill="#EF7F22" transform="translate(416,504)"/>
<path d="M0 0 C2.03435531 3.72965139 3 5.66905042 3 10 C1.54980469 10.72703125 1.54980469 10.72703125 0.0703125 11.46875 C-12.7125933 18.0016868 -22.89234787 25.81059881 -32 37 C-35.95820859 36.43454163 -38.6659053 35.19097652 -42 33 C-33.68817991 23.02581589 -14.41605421 0 0 0 Z " fill="#EF7F22" transform="translate(82,16)"/>
<path d="M0 0 C4.98684839 2.21637706 8.52351673 5.36793261 11.9375 9.5625 C16.69448913 15.15588283 22.60254315 19.33113905 28.40722656 23.76513672 C31.37210276 26.06377924 34.18594323 28.52094999 37 31 C36.42655063 33.86724686 36.1385485 34.8614515 34 37 C25.11064862 36.42649346 17.41154941 30.07576239 11.50390625 23.76953125 C5 16.11688312 5 16.11688312 5 13 C4.2575 12.938125 3.515 12.87625 2.75 12.8125 C-0.89817919 11.73462887 -2.05452793 10.2175115 -4 7 C-3.91911632 4.24995486 -3.26262441 3.29413933 -1.4375 1.25 C-0.963125 0.8375 -0.48875 0.425 0 0 Z " fill="#EF7F22" transform="translate(36,1424)"/>
<path d="M0 0 C2.97 0 5.94 0 9 0 C9.07485565 5.21033686 9.12893126 10.4203521 9.16479492 15.63110352 C9.17976535 17.39906272 9.20014903 19.16698555 9.22631836 20.93481445 C9.36885492 30.82014409 9.29691527 39.54192024 6 49 C2.7 49 -0.6 49 -4 49 C-3.79141357 48.20255371 -3.58282715 47.40510742 -3.36791992 46.58349609 C-0.95181441 36.52294429 -0.46029964 26.92631563 -0.3125 16.625 C-0.27922705 15.00257843 -0.24472872 13.38018151 -0.20898438 11.7578125 C-0.12524575 7.83868113 -0.05791401 3.91959452 0 0 Z " fill="#EF7F22" transform="translate(1932,1324)"/>
<path d="M0 0 C2.97 0 5.94 0 9 0 C9.10022461 0.73935791 9.20044922 1.47871582 9.30371094 2.24047852 C11.80199069 20.96148561 11.80199069 20.96148561 16.265625 39.27734375 C17 42 17 42 17 46 C11.375 49 11.375 49 8 49 C5.25061815 38.27415066 2.74687844 27.59560513 1.1875 16.625 C1.0639917 15.76495361 0.9404834 14.90490723 0.81323242 14.01879883 C0.18011322 9.30082983 -0.12186766 4.75925287 0 0 Z " fill="#EF7F22" transform="translate(0,1336)"/>
<path d="M0 0 C36.44660971 -0.51998016 36.44660971 -0.51998016 49 4 C48.44271087 7.34373475 47.64826111 10.03312999 46 13 C42.38481802 12.56617816 38.78567534 12.13349915 35.1953125 11.5234375 C23.52805787 9.61217574 11.79969839 9.35774289 0 9 C0 6.03 0 3.06 0 0 Z " fill="#EF7F22" transform="translate(1404,944)"/>
<path d="M0 0 C1.66095703 0.30744141 1.66095703 0.30744141 3.35546875 0.62109375 C18.52156937 3.24325489 33.63335522 3.71039539 49 4 C49 6.97 49 9.94 49 13 C44.98392647 13.05034615 40.96798115 13.08615418 36.95166016 13.10986328 C34.93255127 13.12458051 32.91352948 13.15002367 30.89453125 13.17578125 C20.52731368 13.22685129 9.63549308 13.25785533 0 9 C0 6.03 0 3.06 0 0 Z " fill="#EF7F22" transform="translate(492,556)"/>
<path d="M0 0 C2.97 0 5.94 0 9 0 C9.0501123 1.04341553 9.10022461 2.08683105 9.15185547 3.16186523 C9.34164249 7.07048198 9.54166736 10.97852168 9.74462891 14.88647461 C9.83071243 16.57090662 9.91409957 18.25547886 9.99462891 19.94018555 C10.11154399 22.37591642 10.23847519 24.81096106 10.3671875 27.24609375 C10.40061249 27.98709824 10.43403748 28.72810272 10.46847534 29.49156189 C10.72536173 34.12864983 11.44340558 38.44482326 12.58474731 42.94837952 C13 45 13 45 13 49 C10.03 49 7.06 49 4 49 C3.50767932 47.25365495 3.0321043 45.50259022 2.5625 43.75 C2.16224609 42.28820312 2.16224609 42.28820312 1.75390625 40.796875 C-0.15016723 31.20744796 -0.13726063 21.49188536 -0.0625 11.75 C-0.05798828 10.61175781 -0.05347656 9.47351563 -0.04882812 8.30078125 C-0.03720214 5.53379591 -0.02086431 2.76692842 0 0 Z " fill="#EF7F22" transform="translate(384,416)"/>
<path d="M0 0 C16.17 0 32.34 0 49 0 C49 2.97 49 5.94 49 9 C32.83 9 16.66 9 0 9 C0 6.03 0 3.06 0 0 Z " fill="#EF7F22" transform="translate(1696,1476)"/>
<path d="M0 0 C16.17 0 32.34 0 49 0 C49 2.97 49 5.94 49 9 C32.83 9 16.66 9 0 9 C0 6.03 0 3.06 0 0 Z " fill="#EF7F22" transform="translate(1600,1476)"/>
<path d="M0 0 C16.17 0 32.34 0 49 0 C49 2.97 49 5.94 49 9 C32.83 9 16.66 9 0 9 C0 6.03 0 3.06 0 0 Z " fill="#EF7F22" transform="translate(304,1476)"/>
<path d="M0 0 C16.17 0 32.34 0 49 0 C49 2.97 49 5.94 49 9 C32.83 9 16.66 9 0 9 C0 6.03 0 3.06 0 0 Z " fill="#EF7F22" transform="translate(208,1476)"/>
<path d="M0 0 C2.97 0 5.94 0 9 0 C9 16.17 9 32.34 9 49 C6.03 49 3.06 49 0 49 C0 32.83 0 16.66 0 0 Z " fill="#EF7F22" transform="translate(1552,1432)"/>
<path d="M0 0 C2.97 0 5.94 0 9 0 C9 16.17 9 32.34 9 49 C6.03 49 3.06 49 0 49 C0 32.83 0 16.66 0 0 Z " fill="#EF7F22" transform="translate(384,1420)"/>
<path d="M0 0 C2.97 0 5.94 0 9 0 C9 16.17 9 32.34 9 49 C6.03 49 3.06 49 0 49 C0 32.83 0 16.66 0 0 Z " fill="#EF7F22" transform="translate(1552,1336)"/>
<path d="M0 0 C2.97 0 5.94 0 9 0 C9 16.17 9 32.34 9 49 C6.03 49 3.06 49 0 49 C0 32.83 0 16.66 0 0 Z " fill="#EF7F22" transform="translate(384,1324)"/>
<path d="M0 0 C2.97 0 5.94 0 9 0 C9 16.17 9 32.34 9 49 C6.03 49 3.06 49 0 49 C0 32.83 0 16.66 0 0 Z " fill="#EF7F22" transform="translate(1552,1240)"/>
<path d="M0 0 C2.97 0 5.94 0 9 0 C9 16.17 9 32.34 9 49 C6.03 49 3.06 49 0 49 C0 32.83 0 16.66 0 0 Z " fill="#EF7F22" transform="translate(0,1240)"/>
<path d="M0 0 C2.97 0 5.94 0 9 0 C9 16.17 9 32.34 9 49 C6.03 49 3.06 49 0 49 C0 32.83 0 16.66 0 0 Z " fill="#EF7F22" transform="translate(1932,1228)"/>
<path d="M0 0 C2.97 0 5.94 0 9 0 C9 16.17 9 32.34 9 49 C6.03 49 3.06 49 0 49 C0 32.83 0 16.66 0 0 Z " fill="#EF7F22" transform="translate(384,1228)"/>
<path d="M0 0 C2.97 0 5.94 0 9 0 C9 16.17 9 32.34 9 49 C6.03 49 3.06 49 0 49 C0 32.83 0 16.66 0 0 Z " fill="#EF7F22" transform="translate(1552,1144)"/>
<path d="M0 0 C2.97 0 5.94 0 9 0 C9 16.17 9 32.34 9 49 C6.03 49 3.06 49 0 49 C0 32.83 0 16.66 0 0 Z " fill="#EF7F22" transform="translate(0,1144)"/>
<path d="M0 0 C2.97 0 5.94 0 9 0 C9 16.17 9 32.34 9 49 C6.03 49 3.06 49 0 49 C0 32.83 0 16.66 0 0 Z " fill="#EF7F22" transform="translate(1932,1132)"/>
<path d="M0 0 C2.97 0 5.94 0 9 0 C9 16.17 9 32.34 9 49 C6.03 49 3.06 49 0 49 C0 32.83 0 16.66 0 0 Z " fill="#EF7F22" transform="translate(384,1132)"/>
<path d="M0 0 C2.97 0 5.94 0 9 0 C9 16.17 9 32.34 9 49 C6.03 49 3.06 49 0 49 C0 32.83 0 16.66 0 0 Z " fill="#EF7F22" transform="translate(0,1048)"/>
<path d="M0 0 C2.97 0 5.94 0 9 0 C9 16.17 9 32.34 9 49 C6.03 49 3.06 49 0 49 C0 32.83 0 16.66 0 0 Z " fill="#EF7F22" transform="translate(1932,1036)"/>
<path d="M0 0 C2.97 0 5.94 0 9 0 C9 16.17 9 32.34 9 49 C6.03 49 3.06 49 0 49 C0 32.83 0 16.66 0 0 Z " fill="#EF7F22" transform="translate(384,1036)"/>
<path d="M0 0 C2.97 0 5.94 0 9 0 C9 16.17 9 32.34 9 49 C6.03 49 3.06 49 0 49 C0 32.83 0 16.66 0 0 Z " fill="#EF7F22" transform="translate(0,952)"/>
<path d="M0 0 C16.17 0 32.34 0 49 0 C49 2.97 49 5.94 49 9 C32.83 9 16.66 9 0 9 C0 6.03 0 3.06 0 0 Z " fill="#EF7F22" transform="translate(1308,944)"/>
<path d="M0 0 C16.17 0 32.34 0 49 0 C49 2.97 49 5.94 49 9 C32.83 9 16.66 9 0 9 C0 6.03 0 3.06 0 0 Z " fill="#EF7F22" transform="translate(1212,944)"/>
<path d="M0 0 C16.17 0 32.34 0 49 0 C49 2.97 49 5.94 49 9 C32.83 9 16.66 9 0 9 C0 6.03 0 3.06 0 0 Z " fill="#EF7F22" transform="translate(1116,944)"/>
<path d="M0 0 C16.17 0 32.34 0 49 0 C49 2.97 49 5.94 49 9 C32.83 9 16.66 9 0 9 C0 6.03 0 3.06 0 0 Z " fill="#EF7F22" transform="translate(1020,944)"/>
<path d="M0 0 C16.17 0 32.34 0 49 0 C49 2.97 49 5.94 49 9 C32.83 9 16.66 9 0 9 C0 6.03 0 3.06 0 0 Z " fill="#EF7F22" transform="translate(924,944)"/>
<path d="M0 0 C16.17 0 32.34 0 49 0 C49 2.97 49 5.94 49 9 C32.83 9 16.66 9 0 9 C0 6.03 0 3.06 0 0 Z " fill="#EF7F22" transform="translate(828,944)"/>
<path d="M0 0 C16.17 0 32.34 0 49 0 C49 2.97 49 5.94 49 9 C32.83 9 16.66 9 0 9 C0 6.03 0 3.06 0 0 Z " fill="#EF7F22" transform="translate(732,944)"/>
<path d="M0 0 C16.17 0 32.34 0 49 0 C49 2.97 49 5.94 49 9 C32.83 9 16.66 9 0 9 C0 6.03 0 3.06 0 0 Z " fill="#EF7F22" transform="translate(636,944)"/>
<path d="M0 0 C16.17 0 32.34 0 49 0 C49 2.97 49 5.94 49 9 C32.83 9 16.66 9 0 9 C0 6.03 0 3.06 0 0 Z " fill="#EF7F22" transform="translate(540,944)"/>
<path d="M0 0 C16.17 0 32.34 0 49 0 C49 2.97 49 5.94 49 9 C32.83 9 16.66 9 0 9 C0 6.03 0 3.06 0 0 Z " fill="#EF7F22" transform="translate(444,944)"/>
<path d="M0 0 C4.29 0 8.58 0 13 0 C13 2.97 13 5.94 13 9 C11.68 9 10.36 9 9 9 C9 20.88 9 32.76 9 45 C6.03 45 3.06 45 0 45 C0 30.15 0 15.3 0 0 Z " fill="#EF7F22" transform="translate(384,944)"/>
<path d="M0 0 C2.97 0 5.94 0 9 0 C9 16.17 9 32.34 9 49 C6.03 49 3.06 49 0 49 C0 32.83 0 16.66 0 0 Z " fill="#EF7F22" transform="translate(1932,940)"/>
<path d="M0 0 C2.97 0 5.94 0 9 0 C9 16.17 9 32.34 9 49 C6.03 49 3.06 49 0 49 C0 32.83 0 16.66 0 0 Z " fill="#EF7F22" transform="translate(0,856)"/>
<path d="M0 0 C2.97 0 5.94 0 9 0 C9 16.17 9 32.34 9 49 C6.03 49 3.06 49 0 49 C0 32.83 0 16.66 0 0 Z " fill="#EF7F22" transform="translate(1932,844)"/>
<path d="M0 0 C2.97 0 5.94 0 9 0 C9 16.17 9 32.34 9 49 C6.03 49 3.06 49 0 49 C0 32.83 0 16.66 0 0 Z " fill="#EF7F22" transform="translate(0,760)"/>
<path d="M0 0 C2.97 0 5.94 0 9 0 C9 16.17 9 32.34 9 49 C6.03 49 3.06 49 0 49 C0 32.83 0 16.66 0 0 Z " fill="#EF7F22" transform="translate(1932,748)"/>
<path d="M0 0 C2.97 0 5.94 0 9 0 C9 16.17 9 32.34 9 49 C6.03 49 3.06 49 0 49 C0 32.83 0 16.66 0 0 Z " fill="#EF7F22" transform="translate(0,664)"/>
<path d="M0 0 C2.97 0 5.94 0 9 0 C9 16.17 9 32.34 9 49 C6.03 49 3.06 49 0 49 C0 32.83 0 16.66 0 0 Z " fill="#EF7F22" transform="translate(1932,652)"/>
<path d="M0 0 C2.97 0 5.94 0 9 0 C9 16.17 9 32.34 9 49 C6.03 49 3.06 49 0 49 C0 32.83 0 16.66 0 0 Z " fill="#EF7F22" transform="translate(0,568)"/>
<path d="M0 0 C16.17 0 32.34 0 49 0 C49 2.97 49 5.94 49 9 C32.83 9 16.66 9 0 9 C0 6.03 0 3.06 0 0 Z " fill="#EF7F22" transform="translate(1452,560)"/>
<path d="M0 0 C16.17 0 32.34 0 49 0 C49 2.97 49 5.94 49 9 C32.83 9 16.66 9 0 9 C0 6.03 0 3.06 0 0 Z " fill="#EF7F22" transform="translate(1356,560)"/>
<path d="M0 0 C16.17 0 32.34 0 49 0 C49 2.97 49 5.94 49 9 C32.83 9 16.66 9 0 9 C0 6.03 0 3.06 0 0 Z " fill="#EF7F22" transform="translate(1260,560)"/>
<path d="M0 0 C16.17 0 32.34 0 49 0 C49 2.97 49 5.94 49 9 C32.83 9 16.66 9 0 9 C0 6.03 0 3.06 0 0 Z " fill="#EF7F22" transform="translate(1164,560)"/>
<path d="M0 0 C16.17 0 32.34 0 49 0 C49 2.97 49 5.94 49 9 C32.83 9 16.66 9 0 9 C0 6.03 0 3.06 0 0 Z " fill="#EF7F22" transform="translate(1068,560)"/>
<path d="M0 0 C16.17 0 32.34 0 49 0 C49 2.97 49 5.94 49 9 C32.83 9 16.66 9 0 9 C0 6.03 0 3.06 0 0 Z " fill="#EF7F22" transform="translate(972,560)"/>
<path d="M0 0 C16.17 0 32.34 0 49 0 C49 2.97 49 5.94 49 9 C32.83 9 16.66 9 0 9 C0 6.03 0 3.06 0 0 Z " fill="#EF7F22" transform="translate(876,560)"/>
<path d="M0 0 C16.17 0 32.34 0 49 0 C49 2.97 49 5.94 49 9 C32.83 9 16.66 9 0 9 C0 6.03 0 3.06 0 0 Z " fill="#EF7F22" transform="translate(780,560)"/>
<path d="M0 0 C16.17 0 32.34 0 49 0 C49 2.97 49 5.94 49 9 C32.83 9 16.66 9 0 9 C0 6.03 0 3.06 0 0 Z " fill="#EF7F22" transform="translate(684,560)"/>
<path d="M0 0 C16.17 0 32.34 0 49 0 C49 2.97 49 5.94 49 9 C32.83 9 16.66 9 0 9 C0 6.03 0 3.06 0 0 Z " fill="#EF7F22" transform="translate(588,560)"/>
<path d="M0 0 C2.97 0 5.94 0 9 0 C9 16.17 9 32.34 9 49 C6.03 49 3.06 49 0 49 C0 32.83 0 16.66 0 0 Z " fill="#EF7F22" transform="translate(1932,556)"/>
<path d="M0 0 C2.97 0 5.94 0 9 0 C9 16.17 9 32.34 9 49 C6.03 49 3.06 49 0 49 C0 32.83 0 16.66 0 0 Z " fill="#EF7F22" transform="translate(0,472)"/>
<path d="M0 0 C2.97 0 5.94 0 9 0 C9 16.17 9 32.34 9 49 C6.03 49 3.06 49 0 49 C0 32.83 0 16.66 0 0 Z " fill="#EF7F22" transform="translate(1932,460)"/>
<path d="M0 0 C2.97 0 5.94 0 9 0 C9 16.17 9 32.34 9 49 C6.03 49 3.06 49 0 49 C0 32.83 0 16.66 0 0 Z " fill="#EF7F22" transform="translate(1552,428)"/>
<path d="M0 0 C2.97 0 5.94 0 9 0 C9 16.17 9 32.34 9 49 C6.03 49 3.06 49 0 49 C0 32.83 0 16.66 0 0 Z " fill="#EF7F22" transform="translate(0,376)"/>
<path d="M0 0 C2.97 0 5.94 0 9 0 C9 16.17 9 32.34 9 49 C6.03 49 3.06 49 0 49 C0 32.83 0 16.66 0 0 Z " fill="#EF7F22" transform="translate(1932,364)"/>
<path d="M0 0 C2.97 0 5.94 0 9 0 C9 16.17 9 32.34 9 49 C6.03 49 3.06 49 0 49 C0 32.83 0 16.66 0 0 Z " fill="#EF7F22" transform="translate(1552,332)"/>
<path d="M0 0 C2.97 0 5.94 0 9 0 C9 16.17 9 32.34 9 49 C6.03 49 3.06 49 0 49 C0 32.83 0 16.66 0 0 Z " fill="#EF7F22" transform="translate(384,320)"/>
<path d="M0 0 C2.97 0 5.94 0 9 0 C9 16.17 9 32.34 9 49 C6.03 49 3.06 49 0 49 C0 32.83 0 16.66 0 0 Z " fill="#EF7F22" transform="translate(0,280)"/>
<path d="M0 0 C2.97 0 5.94 0 9 0 C9 16.17 9 32.34 9 49 C6.03 49 3.06 49 0 49 C0 32.83 0 16.66 0 0 Z " fill="#EF7F22" transform="translate(1932,268)"/>
<path d="M0 0 C2.97 0 5.94 0 9 0 C9 16.17 9 32.34 9 49 C6.03 49 3.06 49 0 49 C0 32.83 0 16.66 0 0 Z " fill="#EF7F22" transform="translate(1552,236)"/>
<path d="M0 0 C2.97 0 5.94 0 9 0 C9 16.17 9 32.34 9 49 C6.03 49 3.06 49 0 49 C0 32.83 0 16.66 0 0 Z " fill="#EF7F22" transform="translate(384,224)"/>
<path d="M0 0 C2.97 0 5.94 0 9 0 C9 16.17 9 32.34 9 49 C6.03 49 3.06 49 0 49 C0 32.83 0 16.66 0 0 Z " fill="#EF7F22" transform="translate(0,184)"/>
<path d="M0 0 C2.97 0 5.94 0 9 0 C9 16.17 9 32.34 9 49 C6.03 49 3.06 49 0 49 C0 32.83 0 16.66 0 0 Z " fill="#EF7F22" transform="translate(1932,172)"/>
<path d="M0 0 C2.97 0 5.94 0 9 0 C9 16.17 9 32.34 9 49 C6.03 49 3.06 49 0 49 C0 32.83 0 16.66 0 0 Z " fill="#EF7F22" transform="translate(1552,140)"/>
<path d="M0 0 C2.97 0 5.94 0 9 0 C9 16.17 9 32.34 9 49 C6.03 49 3.06 49 0 49 C0 32.83 0 16.66 0 0 Z " fill="#EF7F22" transform="translate(384,128)"/>
<path d="M0 0 C2.97 0 5.94 0 9 0 C9 16.17 9 32.34 9 49 C6.03 49 3.06 49 0 49 C0 32.83 0 16.66 0 0 Z " fill="#EF7F22" transform="translate(1552,44)"/>
<path d="M0 0 C2.97 0 5.94 0 9 0 C9 16.17 9 32.34 9 49 C6.03 49 3.06 49 0 49 C0 32.83 0 16.66 0 0 Z " fill="#EF7F22" transform="translate(384,32)"/>
<path d="M0 0 C16.17 0 32.34 0 49 0 C49 2.97 49 5.94 49 9 C32.83 9 16.66 9 0 9 C0 6.03 0 3.06 0 0 Z " fill="#EF7F22" transform="translate(1756,0)"/>
<path d="M0 0 C16.17 0 32.34 0 49 0 C49 2.97 49 5.94 49 9 C32.83 9 16.66 9 0 9 C0 6.03 0 3.06 0 0 Z " fill="#EF7F22" transform="translate(1660,0)"/>
<path d="M0 0 C16.17 0 32.34 0 49 0 C49 2.97 49 5.94 49 9 C32.83 9 16.66 9 0 9 C0 6.03 0 3.06 0 0 Z " fill="#EF7F22" transform="translate(1564,0)"/>
<path d="M0 0 C16.17 0 32.34 0 49 0 C49 2.97 49 5.94 49 9 C32.83 9 16.66 9 0 9 C0 6.03 0 3.06 0 0 Z " fill="#EF7F22" transform="translate(320,0)"/>
<path d="M0 0 C16.17 0 32.34 0 49 0 C49 2.97 49 5.94 49 9 C32.83 9 16.66 9 0 9 C0 6.03 0 3.06 0 0 Z " fill="#EF7F22" transform="translate(224,0)"/>
<path d="M0 0 C16.17 0 32.34 0 49 0 C49 2.97 49 5.94 49 9 C32.83 9 16.66 9 0 9 C0 6.03 0 3.06 0 0 Z " fill="#EF7F22" transform="translate(128,0)"/>
<path d="M0 0 C2.97 0 5.94 0 9 0 C9.07409532 5.92648574 9.12857616 11.85270253 9.16479492 17.77954102 C9.17989179 19.79619034 9.20037115 21.81280679 9.22631836 23.8293457 C9.26266211 26.72615671 9.2797172 29.62253406 9.29296875 32.51953125 C9.30845261 33.42274612 9.32393646 34.325961 9.33988953 35.25654602 C9.34022942 36.5175135 9.34022942 36.5175135 9.34057617 37.80395508 C9.34723801 38.54341873 9.35389984 39.28288239 9.36076355 40.04475403 C8.89514615 42.568281 8.01230032 43.4528993 6 45 C3.51953125 45.29296875 3.51953125 45.29296875 0.8125 45.1875 C-0.08855469 45.16042969 -0.98960938 45.13335938 -1.91796875 45.10546875 C-2.60503906 45.07066406 -3.29210938 45.03585937 -4 45 C-4 42.03 -4 39.06 -4 36 C-2.68 36 -1.36 36 0 36 C0 24.12 0 12.24 0 0 Z " fill="#EF7F22" transform="translate(1552,524)"/>
<path d="M0 0 C1.11507935 0.31287964 1.11507935 0.31287964 2.25268555 0.63208008 C11.52171536 3.02420195 20.28765025 3.53784994 29.8125 3.6875 C31.29494999 3.72077518 32.77737305 3.75527369 34.25976562 3.79101562 C37.83964513 3.87472726 41.41959928 3.94207093 45 4 C45 6.97 45 9.94 45 13 C40.41425999 13.07530902 35.82889582 13.12913594 31.24267578 13.16479492 C29.68922642 13.17969189 28.13581765 13.20001651 26.58251953 13.22631836 C16.48146132 13.39281932 6.70342423 13.23852953 -3 10 C-3.33 9.34 -3.66 8.68 -4 8 C-2.88939218 5.22068998 -1.40526549 2.64019577 0 0 Z " fill="#EF7F22" transform="translate(116,1472)"/>
<path d="M0 0 C11.71361418 4.09872468 21.46074047 15.88871888 30.26464844 24.33789062 C31.36197217 25.38890075 32.46835753 26.43060071 33.58691406 27.45898438 C34.78124872 28.58197789 35.89956546 29.78484835 37 31 C37 31.99 37 32.98 37 34 C31.64536553 37.04240595 31.64536553 37.04240595 29.09765625 36.875 C26.12948234 35.63687904 24.42019604 33.74051718 22.1875 31.4375 C21.30449219 30.52871094 20.42148438 29.61992188 19.51171875 28.68359375 C16.88277679 25.8747553 14.35617584 23.00056654 11.85546875 20.078125 C8.09622907 15.86777656 4.0198498 11.95924905 0 8 C-1.33446568 6.66779997 -2.66819835 5.33486326 -4 4 C-2.68 2.68 -1.36 1.36 0 0 Z " fill="#EF7F22" transform="translate(1496,968)"/>
<path d="M0 0 C0 2.97 0 5.94 0 9 C-5.26111081 11.4486553 -10.33018365 12.93586066 -16 14.125 C-16.76828125 14.29386719 -17.5365625 14.46273438 -18.328125 14.63671875 C-25.91785317 16.27599677 -33.17605918 17.14895992 -40.9375 17.0625 C-41.71673828 17.05798828 -42.49597656 17.05347656 -43.29882812 17.04882812 C-45.19925268 17.03716908 -47.09963706 17.01923877 -49 17 C-49 14.03 -49 11.06 -49 8 C-47.98184204 7.97812622 -47.98184204 7.97812622 -46.94311523 7.95581055 C-31.44461454 7.58458112 -13.83188728 0 0 0 Z " fill="#EF7F22" transform="translate(1841,1468)"/>
<path d="M0 0 C3.40312738 1.05875074 6.01353231 2.00902154 9 4 C8.39355116 8.77887775 7.48346608 13.31710867 6.22265625 17.96484375 C6.05124619 18.60184708 5.87983612 19.2388504 5.70323181 19.89515686 C5.16017723 21.91033713 4.61156221 23.92394923 4.0625 25.9375 C3.51927488 27.9438308 2.97721967 29.95047463 2.43539429 31.95718384 C1.92384086 33.85166432 1.41139556 35.74590391 0.89892578 37.64013672 C-0.11157229 41.41701735 -1.07348202 45.20176138 -2 49 C-3.98 49 -5.96 49 -8 49 C-7.74936023 32.22992068 -4.14065482 16.19670094 0 0 Z " fill="#EF7F22" transform="translate(12,88)"/>
<path d="M0 0 C5.49001428 2.06126353 10.22242592 5.03922559 15.1875 8.125 C16.12916016 8.70886475 17.07082031 9.29272949 18.04101562 9.89428711 C24.41445156 13.89316481 30.31749153 18.0621751 36 23 C37.66228084 24.33879721 39.32796604 25.67340361 41 27 C40.75 28.875 40.75 28.875 40 31 C37.953125 32.1328125 37.953125 32.1328125 36 33 C35.42894531 32.443125 34.85789062 31.88625 34.26953125 31.3125 C24.39680953 22.02052661 13.63410039 15.79352632 1 11 C-0.66761285 10.33570367 -2.33458469 9.66978659 -4 9 C-2.68 6.03 -1.36 3.06 0 0 Z " fill="#EF7F22" transform="translate(1852,12)"/>
</svg>
