<?xml version="1.0" encoding="UTF-8"?>
<svg version="1.1" xmlns="http://www.w3.org/2000/svg" width="2033" height="1485">
<path d="M0 0 C10.89 0 21.78 0 33 0 C33 2.97 33 5.94 33 9 C25.08 9 17.16 9 9 9 C9 23.52 9 38.04 9 53 C6.03 53 3.06 53 0 53 C0 35.51 0 18.02 0 0 Z " fill="#EF7F22" transform="translate(0,0)"/>
<path d="M0 0 C3.46689423 1.4902939 5.6913985 3.4963528 8.375 6.125 C17.85714717 14.78563956 28.97294383 19.84447229 41 24 C40.38550003 27.33822957 39.65439171 30.02209492 38 33 C22.43792748 31.9389496 4.34896185 20.53832172 -7 10 C-7 7 -7 7 -5.46875 5.17578125 C-4.8190625 4.56089844 -4.169375 3.94601562 -3.5 3.3125 C-2.8503125 2.68988281 -2.200625 2.06726562 -1.53125 1.42578125 C-0.77328125 0.72001953 -0.77328125 0.72001953 0 0 Z " fill="#EF7F22" transform="translate(788,1392)"/>
<path d="M0 0 C3.40312738 1.05875074 6.01353231 2.00902154 9 4 C8.4151175 7.81703841 7.31153968 10.59118209 5.375 13.921875 C4.83705811 14.85765381 4.29911621 15.79343262 3.74487305 16.75756836 C3.16906494 17.7450708 2.59325684 18.73257324 2 19.75 C0.8171483 21.80752435 -0.36382569 23.86612927 -1.54296875 25.92578125 C-2.12739746 26.94623535 -2.71182617 27.96668945 -3.31396484 29.01806641 C-7.0324214 35.59455472 -10.51769088 42.29632999 -14 49 C-17.95820859 48.43454163 -20.6659053 47.19097652 -24 45 C-19.28560082 35.31482948 -14.32075864 25.78266268 -9.1875 16.3125 C-8.62458252 15.27351563 -8.06166504 14.23453125 -7.48168945 13.1640625 C-5.06516525 8.72354962 -2.62423336 4.32201004 0 0 Z " fill="#EF7F22" transform="translate(1320,1268)"/>
<path d="M0 0 C0.56545532 1.15447632 0.56545532 1.15447632 1.14233398 2.33227539 C2.90066564 5.91237675 4.66617823 9.48881107 6.4375 13.0625 C6.75446838 13.70226776 7.07143677 14.34203552 7.39801025 15.00119019 C11.73052935 23.72190038 16.25989654 32.20860243 21.5234375 40.41015625 C23 43 23 43 23 46 C17.63009771 49.05108085 17.63009771 49.05108085 14.96118164 48.8347168 C12.3634181 47.72905844 11.74422718 46.53142618 10.37109375 44.08203125 C9.89833008 43.24953857 9.42556641 42.4170459 8.93847656 41.55932617 C8.4431543 40.65287354 7.94783203 39.7464209 7.4375 38.8125 C6.92026367 37.88735596 6.40302734 36.96221191 5.87011719 36.0090332 C0.24682633 25.84391923 -4.9240335 15.44687145 -10 5 C-3.45205479 0 -3.45205479 0 0 0 Z " fill="#EF7F22" transform="translate(594,1064)"/>
<path d="M0 0 C0.56545532 1.15447632 0.56545532 1.15447632 1.14233398 2.33227539 C2.90066564 5.91237675 4.66617823 9.48881107 6.4375 13.0625 C6.75446838 13.70226776 7.07143677 14.34203552 7.39801025 15.00119019 C11.73052935 23.72190038 16.25989654 32.20860243 21.5234375 40.41015625 C23 43 23 43 23 46 C17.63009771 49.05108085 17.63009771 49.05108085 14.96118164 48.8347168 C12.3634181 47.72905844 11.74422718 46.53142618 10.37109375 44.08203125 C9.89833008 43.24953857 9.42556641 42.4170459 8.93847656 41.55932617 C8.4431543 40.65287354 7.94783203 39.7464209 7.4375 38.8125 C6.92026367 37.88735596 6.40302734 36.96221191 5.87011719 36.0090332 C0.24682633 25.84391923 -4.9240335 15.44687145 -10 5 C-3.45205479 0 -3.45205479 0 0 0 Z " fill="#EF7F22" transform="translate(546,980)"/>
<path d="M0 0 C3.40312738 1.05875074 6.01353231 2.00902154 9 4 C8.39936393 8.20348836 6.95195001 11.25447762 4.8671875 14.9375 C3.90425781 16.65259766 3.90425781 16.65259766 2.921875 18.40234375 C2.23986788 19.60172435 1.55757532 20.80094268 0.875 22 C-0.11371244 23.75041961 -1.10045413 25.50193792 -2.08685303 27.25366211 C-3.06761452 28.99520918 -4.04991855 30.73588727 -5.03222656 32.4765625 C-8.09917273 37.94217979 -11.05035796 43.47042582 -14 49 C-17.95008059 48.31620454 -20.63457018 47.21156817 -24 45 C-17.36853471 31.16502608 -9.87336125 17.82198034 -2.36352539 4.45166016 C-1.54693157 2.98339961 -0.75134739 1.50269478 0 0 Z " fill="#EF7F22" transform="translate(1512,936)"/>
<path d="M0 0 C3.40312738 1.05875074 6.01353231 2.00902154 9 4 C8.39936393 8.20348836 6.95195001 11.25447762 4.8671875 14.9375 C3.90425781 16.65259766 3.90425781 16.65259766 2.921875 18.40234375 C2.23986788 19.60172435 1.55757532 20.80094268 0.875 22 C-0.11371244 23.75041961 -1.10045413 25.50193792 -2.08685303 27.25366211 C-3.06761452 28.99520918 -4.04991855 30.73588727 -5.03222656 32.4765625 C-8.09917273 37.94217979 -11.05035796 43.47042582 -14 49 C-17.95008059 48.31620454 -20.63457018 47.21156817 -24 45 C-17.36853471 31.16502608 -9.87336125 17.82198034 -2.36352539 4.45166016 C-1.54693157 2.98339961 -0.75134739 1.50269478 0 0 Z " fill="#EF7F22" transform="translate(1136,824)"/>
<path d="M0 0 C0.28609131 0.55236328 0.57218262 1.10472656 0.86694336 1.67382812 C10.68974282 21.0303028 10.68974282 21.0303028 21.75 39.6875 C23 42 23 42 23 46 C17.375 49 17.375 49 14 49 C13.68361572 48.41734375 13.36723145 47.8346875 13.04125977 47.234375 C11.5495528 44.48892192 10.05628513 41.74432294 8.5625 39 C8.01988525 38.00282959 7.47727051 37.00565918 6.91821289 35.97827148 C3.29936329 29.34238362 -0.36393883 22.73489027 -4.14428711 16.18945312 C-6.41203125 12.21749463 -8.26853312 8.22348462 -10 4 C-8.71086513 3.32845067 -7.41859796 2.66291141 -6.125 2 C-5.40570312 1.62875 -4.68640625 1.2575 -3.9453125 0.875 C-2 0 -2 0 0 0 Z " fill="#EF7F22" transform="translate(882,804)"/>
<path d="M0 0 C3.40312738 1.05875074 6.01353231 2.00902154 9 4 C9.8952857 10.20471917 7.85787477 14.03121847 4.8125 19.1875 C4.37631348 19.94981934 3.94012695 20.71213867 3.49072266 21.49755859 C-1.96634499 30.89573609 -7.96899002 39.96344658 -14 49 C-17.95008059 48.31620454 -20.63457018 47.21156817 -24 45 C-21.17635247 39.63648861 -18.06900629 34.50707319 -14.75 29.4375 C-11.35041352 24.20880776 -8.10360895 18.90998934 -5 13.5 C-4.61424805 12.84185303 -4.22849609 12.18370605 -3.83105469 11.50561523 C-1.66402172 7.67317731 -0.43324798 4.38663576 0 0 Z " fill="#EF7F22" transform="translate(1184,740)"/>
<path d="M0 0 C0.28609131 0.55236328 0.57218262 1.10472656 0.86694336 1.67382812 C10.68974282 21.0303028 10.68974282 21.0303028 21.75 39.6875 C23 42 23 42 23 46 C17.375 49 17.375 49 14 49 C13.68361572 48.41734375 13.36723145 47.8346875 13.04125977 47.234375 C11.5495528 44.48892192 10.05628513 41.74432294 8.5625 39 C8.01988525 38.00282959 7.47727051 37.00565918 6.91821289 35.97827148 C3.29936329 29.34238362 -0.36393883 22.73489027 -4.14428711 16.18945312 C-6.41203125 12.21749463 -8.26853312 8.22348462 -10 4 C-8.71086513 3.32845067 -7.41859796 2.66291141 -6.125 2 C-5.40570312 1.62875 -4.68640625 1.2575 -3.9453125 0.875 C-2 0 -2 0 0 0 Z " fill="#EF7F22" transform="translate(834,720)"/>
<path d="M0 0 C0.28609131 0.55236328 0.57218262 1.10472656 0.86694336 1.67382812 C10.68974282 21.0303028 10.68974282 21.0303028 21.75 39.6875 C23 42 23 42 23 46 C17.375 49 17.375 49 14 49 C13.68361572 48.41734375 13.36723145 47.8346875 13.04125977 47.234375 C11.5495528 44.48892192 10.05628513 41.74432294 8.5625 39 C8.01988525 38.00282959 7.47727051 37.00565918 6.91821289 35.97827148 C3.29936329 29.34238362 -0.36393883 22.73489027 -4.14428711 16.18945312 C-6.41203125 12.21749463 -8.26853312 8.22348462 -10 4 C-8.71086513 3.32845067 -7.41859796 2.66291141 -6.125 2 C-5.40570312 1.62875 -4.68640625 1.2575 -3.9453125 0.875 C-2 0 -2 0 0 0 Z " fill="#EF7F22" transform="translate(642,388)"/>
<path d="M0 0 C2.03435531 3.72965139 3 5.66905042 3 10 C2.07960938 10.46148437 1.15921875 10.92296875 0.2109375 11.3984375 C-12.49587355 17.89483484 -23.78285372 25.50081035 -34.109375 35.3828125 C-36 37 -36 37 -38 37 C-39.32 34.03 -40.64 31.06 -42 28 C-33.57988741 18.75841301 -13.18129429 0 0 0 Z " fill="#EF7F22" transform="translate(1642,8)"/>
<path d="M0 0 C3.40312738 1.05875074 6.01353231 2.00902154 9 4 C7.92754124 9.42386666 4.78631407 13.86266496 2 18.5625 C1.41420166 19.55233887 0.82840332 20.54217773 0.22485352 21.56201172 C-3.99124484 28.5721049 -8.38093217 35.02325023 -14 41 C-14.6909375 41.75152344 -15.381875 42.50304688 -16.09375 43.27734375 C-18 45 -18 45 -20.4375 44.9375 C-23.21206633 43.92241476 -25.53450143 42.62018477 -28 41 C-27.175 40.05125 -26.35 39.1025 -25.5 38.125 C-24.3329963 36.75028604 -23.16635992 35.37526021 -22 34 C-21.07767578 32.94619141 -21.07767578 32.94619141 -20.13671875 31.87109375 C-14.37102732 25.04238907 -10.24164356 17.59810952 -5.99121094 9.78808594 C-4.13245417 6.43499861 -2.07913068 3.21929912 0 0 Z " fill="#EF7F22" transform="translate(1272,1352)"/>
<path d="M0 0 C0.32162109 0.65371582 0.64324219 1.30743164 0.97460938 1.98095703 C10.62597198 21.72183951 10.62597198 21.72183951 21.71484375 40.67578125 C23 43 23 43 23 46 C17.375 49 17.375 49 14 49 C13.56429688 48.0821875 13.12859375 47.164375 12.6796875 46.21875 C12.07857222 44.97894973 11.47698395 43.73937872 10.875 42.5 C10.59140625 41.89929688 10.3078125 41.29859375 10.015625 40.6796875 C8.33409212 37.24351161 6.49777855 34.25515917 4.125 31.25 C0.35902239 26.38319816 -2.20784573 21.02274878 -4.875 15.5 C-5.37257813 14.48679687 -5.87015625 13.47359375 -6.3828125 12.4296875 C-7.59600101 9.95664938 -8.8015016 7.48018142 -10 5 C-3.45205479 0 -3.45205479 0 0 0 Z " fill="#EF7F22" transform="translate(450,56)"/>
<path d="M0 0 C1.36938477 1.96508789 1.36938477 1.96508789 2.94140625 4.72265625 C3.52132324 5.72981689 4.10124023 6.73697754 4.69873047 7.7746582 C5.31377441 8.859646 5.92881836 9.94463379 6.5625 11.0625 C7.82587736 13.26616736 9.09020056 15.46929274 10.35546875 17.671875 C10.97470215 18.75275391 11.59393555 19.83363281 12.23193359 20.94726562 C14.90261496 25.55845035 17.67556433 30.10707445 20.51000977 34.61938477 C22.17988995 37.33842118 23 38.7377158 23 42 C17.65724476 45.03565639 17.65724476 45.03565639 14.99291992 44.89111328 C12.13357865 43.61258876 11.38689686 41.89171846 9.86328125 39.1796875 C9.28980957 38.17550781 8.71633789 37.17132812 8.12548828 36.13671875 C7.52720215 35.06035156 6.92891602 33.98398438 6.3125 32.875 C5.0671442 30.68447613 3.82105003 28.49437187 2.57421875 26.3046875 C1.96755371 25.23057617 1.36088867 24.15646484 0.73583984 23.04980469 C-1.57209685 18.99484755 -3.95868552 14.99104188 -6.375 11 C-6.93707153 10.06776611 -6.93707153 10.06776611 -7.51049805 9.11669922 C-8.33881847 7.74355199 -9.16912508 6.37160304 -10 5 C-3.45205479 0 -3.45205479 0 0 0 Z " fill="#EF7F22" transform="translate(690,1232)"/>
<path d="M0 0 C3.40312738 1.05875074 6.01353231 2.00902154 9 4 C8.32784591 7.93896752 6.37507014 11.07304472 4.359375 14.453125 C3.99531555 15.07217712 3.6312561 15.69122925 3.25616455 16.32904053 C2.09210457 18.30548693 0.921046 20.27768662 -0.25 22.25 C-1.02257104 23.56094129 -1.79471084 24.87213682 -2.56640625 26.18359375 C-6.29504444 32.50825584 -10.06609829 38.80017091 -14 45 C-17.98124131 44.43125124 -20.61272328 43.12345246 -24 41 C-19.18436905 31.91297857 -13.93854369 23.11259604 -8.625 14.3125 C-7.78494821 12.91744296 -6.94510309 11.52226145 -6.10546875 10.12695312 C-4.0726867 6.74986572 -2.03713467 3.37446343 0 0 Z " fill="#EF7F22" transform="translate(1368,1188)"/>
<path d="M0 0 C3.40312738 1.05875074 6.01353231 2.00902154 9 4 C8.32784591 7.93896752 6.37507014 11.07304472 4.359375 14.453125 C3.99531555 15.07217712 3.6312561 15.69122925 3.25616455 16.32904053 C2.09210457 18.30548693 0.921046 20.27768662 -0.25 22.25 C-1.02257104 23.56094129 -1.79471084 24.87213682 -2.56640625 26.18359375 C-6.29504444 32.50825584 -10.06609829 38.80017091 -14 45 C-17.98124131 44.43125124 -20.61272328 43.12345246 -24 41 C-19.18436905 31.91297857 -13.93854369 23.11259604 -8.625 14.3125 C-7.78494821 12.91744296 -6.94510309 11.52226145 -6.10546875 10.12695312 C-4.0726867 6.74986572 -2.03713467 3.37446343 0 0 Z " fill="#EF7F22" transform="translate(1416,1104)"/>
<path d="M0 0 C3.40312738 1.05875074 6.01353231 2.00902154 9 4 C7.62577032 8.71675707 5.58340584 12.67057499 3 16.8125 C2.19575853 18.12577823 1.3924095 19.4396033 0.58984375 20.75390625 C0.16944824 21.43984863 -0.25094727 22.12579102 -0.68408203 22.83251953 C-3.42018514 27.33922145 -6.06447585 31.90059733 -8.72460938 36.45239258 C-9.12357422 37.13325928 -9.52253906 37.81412598 -9.93359375 38.515625 C-10.28478271 39.11665039 -10.63597168 39.71767578 -10.99780273 40.33691406 C-11.95196574 41.92029004 -12.97455352 43.46183029 -14 45 C-17.98124131 44.43125124 -20.61272328 43.12345246 -24 41 C-19.80490959 33.14672665 -15.3755418 25.44769578 -10.82128906 17.79931641 C-9.73545347 15.97556793 -8.65267206 14.15003193 -7.5703125 12.32421875 C-2.30792573 3.46188859 -2.30792573 3.46188859 0 0 Z " fill="#EF7F22" transform="translate(1464,1020)"/>
<path d="M0 0 C3.40312738 1.05875074 6.01353231 2.00902154 9 4 C8.42229541 7.63781501 7.45526858 10.36321683 5.62890625 13.5546875 C4.89752441 14.8382312 4.89752441 14.8382312 4.15136719 16.14770508 C3.62704102 17.0477124 3.10271484 17.94771973 2.5625 18.875 C2.02915039 19.80014404 1.49580078 20.72528809 0.94628906 21.6784668 C-3.71239647 29.67772016 -8.72199792 37.39827576 -14 45 C-17.95008059 44.31620454 -20.63457018 43.21156817 -24 41 C-21.19734982 35.67637303 -18.11572252 30.5884558 -14.8125 25.5625 C-9.40363026 17.30697842 -4.70766245 8.6683889 0 0 Z " fill="#EF7F22" transform="translate(1088,908)"/>
<path d="M0 0 C1.36938477 1.96508789 1.36938477 1.96508789 2.94140625 4.72265625 C3.52132324 5.72981689 4.10124023 6.73697754 4.69873047 7.7746582 C5.31377441 8.859646 5.92881836 9.94463379 6.5625 11.0625 C7.82587736 13.26616736 9.09020056 15.46929274 10.35546875 17.671875 C10.97470215 18.75275391 11.59393555 19.83363281 12.23193359 20.94726562 C14.90261496 25.55845035 17.67556433 30.10707445 20.51000977 34.61938477 C22.17988995 37.33842118 23 38.7377158 23 42 C17.65724476 45.03565639 17.65724476 45.03565639 14.99291992 44.89111328 C12.13357865 43.61258876 11.38689686 41.89171846 9.86328125 39.1796875 C9.28980957 38.17550781 8.71633789 37.17132812 8.12548828 36.13671875 C7.52720215 35.06035156 6.92891602 33.98398437 6.3125 32.875 C5.0671442 30.68447613 3.82105003 28.49437187 2.57421875 26.3046875 C1.96755371 25.23057617 1.36088867 24.15646484 0.73583984 23.04980469 C-1.57209685 18.99484755 -3.95868552 14.99104188 -6.375 11 C-6.93707153 10.06776611 -6.93707153 10.06776611 -7.51049805 9.11669922 C-8.33881847 7.74355199 -9.16912508 6.37160304 -10 5 C-3.45205479 0 -3.45205479 0 0 0 Z " fill="#EF7F22" transform="translate(498,900)"/>
<path d="M0 0 C1.36938477 1.96508789 1.36938477 1.96508789 2.94140625 4.72265625 C3.52132324 5.72981689 4.10124023 6.73697754 4.69873047 7.7746582 C5.31377441 8.859646 5.92881836 9.94463379 6.5625 11.0625 C7.82587736 13.26616736 9.09020056 15.46929274 10.35546875 17.671875 C10.97470215 18.75275391 11.59393555 19.83363281 12.23193359 20.94726562 C14.90261496 25.55845035 17.67556433 30.10707445 20.51000977 34.61938477 C22.17988995 37.33842118 23 38.7377158 23 42 C17.65724476 45.03565639 17.65724476 45.03565639 14.99291992 44.89111328 C12.13357865 43.61258876 11.38689686 41.89171846 9.86328125 39.1796875 C9.28980957 38.17550781 8.71633789 37.17132812 8.12548828 36.13671875 C7.52720215 35.06035156 6.92891602 33.98398437 6.3125 32.875 C5.0671442 30.68447613 3.82105003 28.49437187 2.57421875 26.3046875 C1.96755371 25.23057617 1.36088867 24.15646484 0.73583984 23.04980469 C-1.57209685 18.99484755 -3.95868552 14.99104188 -6.375 11 C-6.93707153 10.06776611 -6.93707153 10.06776611 -7.51049805 9.11669922 C-8.33881847 7.74355199 -9.16912508 6.37160304 -10 5 C-3.45205479 0 -3.45205479 0 0 0 Z " fill="#EF7F22" transform="translate(930,888)"/>
<path d="M0 0 C3.40312738 1.05875074 6.01353231 2.00902154 9 4 C7.71313073 7.44455804 6.2172274 10.45613375 4.2421875 13.5546875 C3.70231201 14.4103833 3.16243652 15.2660791 2.60620117 16.14770508 C2.03490479 17.0477124 1.4636084 17.94771973 0.875 18.875 C-4.47856177 27.40016292 -9.43843247 36.02845781 -14 45 C-17.95820859 44.43454163 -20.6659053 43.19097652 -24 41 C-9.5013624 9.5013624 -9.5013624 9.5013624 0 0 Z " fill="#EF7F22" transform="translate(1560,856)"/>
<path d="M0 0 C3.40312738 1.05875074 6.01353231 2.00902154 9 4 C7.71313073 7.44455804 6.2172274 10.45613375 4.2421875 13.5546875 C3.70231201 14.4103833 3.16243652 15.2660791 2.60620117 16.14770508 C2.03490479 17.0477124 1.4636084 17.94771973 0.875 18.875 C-4.47856177 27.40016292 -9.43843247 36.02845781 -14 45 C-17.95820859 44.43454163 -20.6659053 43.19097652 -24 41 C-9.5013624 9.5013624 -9.5013624 9.5013624 0 0 Z " fill="#EF7F22" transform="translate(1608,772)"/>
<path d="M0 0 C1.36938477 1.96508789 1.36938477 1.96508789 2.94140625 4.72265625 C3.52132324 5.72981689 4.10124023 6.73697754 4.69873047 7.7746582 C5.31377441 8.859646 5.92881836 9.94463379 6.5625 11.0625 C7.82587736 13.26616736 9.09020056 15.46929274 10.35546875 17.671875 C10.97470215 18.75275391 11.59393555 19.83363281 12.23193359 20.94726562 C14.90261496 25.55845035 17.67556433 30.10707445 20.51000977 34.61938477 C22.17988995 37.33842118 23 38.7377158 23 42 C17.65724476 45.03565639 17.65724476 45.03565639 14.99291992 44.89111328 C12.13357865 43.61258876 11.38689686 41.89171846 9.86328125 39.1796875 C9.28980957 38.17550781 8.71633789 37.17132812 8.12548828 36.13671875 C7.52720215 35.06035156 6.92891602 33.98398437 6.3125 32.875 C5.0671442 30.68447613 3.82105003 28.49437187 2.57421875 26.3046875 C1.96755371 25.23057617 1.36088867 24.15646484 0.73583984 23.04980469 C-1.57209685 18.99484755 -3.95868552 14.99104188 -6.375 11 C-6.93707153 10.06776611 -6.93707153 10.06776611 -7.51049805 9.11669922 C-8.33881847 7.74355199 -9.16912508 6.37160304 -10 5 C-3.45205479 0 -3.45205479 0 0 0 Z " fill="#EF7F22" transform="translate(786,640)"/>
<path d="M0 0 C1.36938477 1.96508789 1.36938477 1.96508789 2.94140625 4.72265625 C3.52132324 5.72981689 4.10124023 6.73697754 4.69873047 7.7746582 C5.31377441 8.859646 5.92881836 9.94463379 6.5625 11.0625 C7.82587736 13.26616736 9.09020056 15.46929274 10.35546875 17.671875 C10.97470215 18.75275391 11.59393555 19.83363281 12.23193359 20.94726562 C14.90261496 25.55845035 17.67556433 30.10707445 20.51000977 34.61938477 C22.17988995 37.33842118 23 38.7377158 23 42 C17.65724476 45.03565639 17.65724476 45.03565639 14.99291992 44.89111328 C12.13357865 43.61258876 11.38689686 41.89171846 9.86328125 39.1796875 C9.28980957 38.17550781 8.71633789 37.17132812 8.12548828 36.13671875 C7.52720215 35.06035156 6.92891602 33.98398437 6.3125 32.875 C5.0671442 30.68447613 3.82105003 28.49437187 2.57421875 26.3046875 C1.96755371 25.23057617 1.36088867 24.15646484 0.73583984 23.04980469 C-1.57209685 18.99484755 -3.95868552 14.99104188 -6.375 11 C-6.93707153 10.06776611 -6.93707153 10.06776611 -7.51049805 9.11669922 C-8.33881847 7.74355199 -9.16912508 6.37160304 -10 5 C-3.45205479 0 -3.45205479 0 0 0 Z " fill="#EF7F22" transform="translate(738,556)"/>
<path d="M0 0 C0.57105469 1.13953125 1.14210938 2.2790625 1.73046875 3.453125 C6.8905594 13.57891192 12.49140921 23.18373899 18.88354492 32.58691406 C19.41955322 33.38323242 19.95556152 34.17955078 20.5078125 35 C20.98879395 35.70125 21.46977539 36.4025 21.96533203 37.125 C23 39 23 39 23 42 C17.61136146 45.06172645 17.61136146 45.06172645 14.9519043 44.79321289 C12.55968138 43.82106376 11.89015104 42.9138607 10.51953125 40.74609375 C10.08189453 40.06401855 9.64425781 39.38194336 9.19335938 38.67919922 C8.73767578 37.93943848 8.28199219 37.19967773 7.8125 36.4375 C7.33490234 35.67969238 6.85730469 34.92188477 6.36523438 34.14111328 C0.30089708 24.42649594 -5.63720506 14.6070452 -10 4 C-8.71086513 3.32845067 -7.41859796 2.66291141 -6.125 2 C-5.40570312 1.62875 -4.68640625 1.2575 -3.9453125 0.875 C-2 0 -2 0 0 0 Z " fill="#EF7F22" transform="translate(690,472)"/>
<path d="M0 0 C1.18579102 1.49023438 1.18579102 1.49023438 2.50390625 3.59375 C3.23794678 4.75777344 3.23794678 4.75777344 3.98681641 5.9453125 C4.50679199 6.78835937 5.02676758 7.63140625 5.5625 8.5 C6.09536621 9.35335937 6.62823242 10.20671875 7.17724609 11.0859375 C11.4036512 17.90688223 15.39345632 24.84387801 19.2578125 31.875 C20.96184446 35.02871404 20.96184446 35.02871404 23 38 C23 39.32 23 40.64 23 42 C17.375 45 17.375 45 14 45 C13.44054687 43.95585937 12.88109375 42.91171875 12.3046875 41.8359375 C5.44065997 29.18247988 -2.1595795 17.06819818 -10 5 C-3.45205479 0 -3.45205479 0 0 0 Z " fill="#EF7F22" transform="translate(546,224)"/>
<path d="M0 0 C1.18579102 1.49023438 1.18579102 1.49023438 2.50390625 3.59375 C3.23794678 4.75777344 3.23794678 4.75777344 3.98681641 5.9453125 C4.50679199 6.78835937 5.02676758 7.63140625 5.5625 8.5 C6.09536621 9.35335937 6.62823242 10.20671875 7.17724609 11.0859375 C11.4036512 17.90688223 15.39345632 24.84387801 19.2578125 31.875 C20.96184446 35.02871404 20.96184446 35.02871404 23 38 C23 39.32 23 40.64 23 42 C17.375 45 17.375 45 14 45 C13.44054687 43.95585937 12.88109375 42.91171875 12.3046875 41.8359375 C5.44065997 29.18247988 -2.1595795 17.06819818 -10 5 C-3.45205479 0 -3.45205479 0 0 0 Z " fill="#EF7F22" transform="translate(498,140)"/>
<path d="M0 0 C14.68989304 0.2724938 34.10974713 5.10974713 45 16 C44.6442194 19.37991574 43.64284201 22.04288438 42 25 C39.14779445 24.38884117 36.87892506 23.51496079 34.34765625 22.07421875 C33.66018311 21.69144775 32.97270996 21.30867676 32.2644043 20.91430664 C31.53777588 20.50946045 30.81114746 20.10461426 30.0625 19.6875 C19.11397624 13.75622276 8.33382352 10.68895601 -4 9 C-2.68 6.03 -1.36 3.06 0 0 Z " fill="#EF7F22" transform="translate(368,4)"/>
<path d="M0 0 C3.40312738 1.05875074 6.01353231 2.00902154 9 4 C8.02147603 18.35168496 -1.28273184 31.31783684 -9.3125 42.75 C-9.74522217 43.37116699 -10.17794434 43.99233398 -10.6237793 44.63232422 C-11.6967221 46.12730105 -12.84248357 47.56950438 -14 49 C-14.66 49 -15.32 49 -16 49 C-18.49097844 46.14410115 -19.67913116 43.80106164 -20 40 C-18.33153984 35.68911156 -15.42970689 31.98799046 -12.8203125 28.20703125 C-10.14127756 24.32323915 -8.01178818 20.35322471 -6.0625 16.0625 C-5.78100098 15.4435083 -5.49950195 14.8245166 -5.20947266 14.18676758 C-3.15018891 9.5417996 -1.45122356 4.86586725 0 0 Z " fill="#EF7F22" transform="translate(2016,1392)"/>
<path d="M0 0 C2.97 0 5.94 0 9 0 C9.0501123 1.04341553 9.10022461 2.08683105 9.15185547 3.16186523 C9.34164249 7.07048198 9.54166736 10.97852168 9.74462891 14.88647461 C9.83071243 16.57090662 9.91409957 18.25547886 9.99462891 19.94018555 C10.11154399 22.37591642 10.23847519 24.81096106 10.3671875 27.24609375 C10.40061249 27.98709824 10.43403748 28.72810272 10.46847534 29.49156189 C10.72669596 34.15273413 11.45026628 38.50723342 12.57254028 43.03993225 C13.08547796 45.39194941 13.15476226 47.60118492 13 50 C7.375 53 7.375 53 4 53 C0.08863925 35.21437847 -0.13805626 18.17032819 0 0 Z " fill="#EF7F22" transform="translate(0,1348)"/>
<path d="M0 0 C0 2.97 0 5.94 0 9 C-5.26111081 11.4486553 -10.33018365 12.93586066 -16 14.125 C-16.76828125 14.29386719 -17.5365625 14.46273438 -18.328125 14.63671875 C-25.91785317 16.27599677 -33.17605918 17.14895992 -40.9375 17.0625 C-41.71673828 17.05798828 -42.49597656 17.05347656 -43.29882812 17.04882812 C-45.19925268 17.03716908 -47.09963706 17.01923877 -49 17 C-49 14.03 -49 11.06 -49 8 C-47.70191406 7.92523437 -46.40382813 7.85046875 -45.06640625 7.7734375 C-30.99547036 6.80655196 -17.79166093 4.14273263 -4.17285156 0.51904297 C-2 0 -2 0 0 0 Z " fill="#EF7F22" transform="translate(1209,1416)"/>
<path d="M0 0 C1.9375 0.6875 1.9375 0.6875 4 2 C5.13565258 4.95182264 5.17965087 6.47443558 4.15478516 9.47265625 C3.70409668 10.32730469 3.2534082 11.18195313 2.7890625 12.0625 C2.29003418 13.01874268 1.79100586 13.97498535 1.27685547 14.96020508 C0.73174316 15.9633374 0.18663086 16.96646973 -0.375 18 C-0.92140137 19.02569092 -1.46780273 20.05138184 -2.03076172 21.1081543 C-11.36992208 38.36992208 -11.36992208 38.36992208 -18 45 C-21.97132519 44.67800066 -24.70665213 43.16420003 -28 41 C-27.6596875 40.56751953 -27.319375 40.13503906 -26.96875 39.68945312 C-22.2398632 33.54567333 -18.12809858 27.05684832 -14 20.5 C-9.57204961 13.4668833 -5.14326175 6.53622847 0 0 Z " fill="#EF7F22" transform="translate(1476,244)"/>
<path d="M0 0 C16.17 0 32.34 0 49 0 C49 2.97 49 5.94 49 9 C32.83 9 16.66 9 0 9 C0 6.03 0 3.06 0 0 Z " fill="#EF7F22" transform="translate(1820,1476)"/>
<path d="M0 0 C16.17 0 32.34 0 49 0 C49 2.97 49 5.94 49 9 C32.83 9 16.66 9 0 9 C0 6.03 0 3.06 0 0 Z " fill="#EF7F22" transform="translate(1724,1476)"/>
<path d="M0 0 C16.17 0 32.34 0 49 0 C49 2.97 49 5.94 49 9 C32.83 9 16.66 9 0 9 C0 6.03 0 3.06 0 0 Z " fill="#EF7F22" transform="translate(308,1476)"/>
<path d="M0 0 C16.17 0 32.34 0 49 0 C49 2.97 49 5.94 49 9 C32.83 9 16.66 9 0 9 C0 6.03 0 3.06 0 0 Z " fill="#EF7F22" transform="translate(212,1476)"/>
<path d="M0 0 C16.17 0 32.34 0 49 0 C49 2.97 49 5.94 49 9 C32.83 9 16.66 9 0 9 C0 6.03 0 3.06 0 0 Z " fill="#EF7F22" transform="translate(116,1476)"/>
<path d="M0 0 C16.17 0 32.34 0 49 0 C49 2.97 49 5.94 49 9 C32.83 9 16.66 9 0 9 C0 6.03 0 3.06 0 0 Z " fill="#EF7F22" transform="translate(1064,1424)"/>
<path d="M0 0 C16.17 0 32.34 0 49 0 C49 2.97 49 5.94 49 9 C32.83 9 16.66 9 0 9 C0 6.03 0 3.06 0 0 Z " fill="#EF7F22" transform="translate(968,1424)"/>
<path d="M0 0 C16.17 0 32.34 0 49 0 C49 2.97 49 5.94 49 9 C32.83 9 16.66 9 0 9 C0 6.03 0 3.06 0 0 Z " fill="#EF7F22" transform="translate(872,1424)"/>
<path d="M0 0 C2.97 0 5.94 0 9 0 C9 16.17 9 32.34 9 49 C6.03 49 3.06 49 0 49 C0 32.83 0 16.66 0 0 Z " fill="#EF7F22" transform="translate(380,1412)"/>
<path d="M0 0 C2.97 0 5.94 0 9 0 C9 16.17 9 32.34 9 49 C6.03 49 3.06 49 0 49 C0 32.83 0 16.66 0 0 Z " fill="#EF7F22" transform="translate(1640,1368)"/>
<path d="M0 0 C2.97 0 5.94 0 9 0 C9 16.17 9 32.34 9 49 C6.03 49 3.06 49 0 49 C0 32.83 0 16.66 0 0 Z " fill="#EF7F22" transform="translate(380,1316)"/>
<path d="M0 0 C2.97 0 5.94 0 9 0 C9 16.17 9 32.34 9 49 C6.03 49 3.06 49 0 49 C0 32.83 0 16.66 0 0 Z " fill="#EF7F22" transform="translate(2024,1300)"/>
<path d="M0 0 C2.97 0 5.94 0 9 0 C9 16.17 9 32.34 9 49 C6.03 49 3.06 49 0 49 C0 32.83 0 16.66 0 0 Z " fill="#EF7F22" transform="translate(1640,1272)"/>
<path d="M0 0 C2.97 0 5.94 0 9 0 C9 16.17 9 32.34 9 49 C6.03 49 3.06 49 0 49 C0 32.83 0 16.66 0 0 Z " fill="#EF7F22" transform="translate(0,1252)"/>
<path d="M0 0 C2.97 0 5.94 0 9 0 C9 16.17 9 32.34 9 49 C6.03 49 3.06 49 0 49 C0 32.83 0 16.66 0 0 Z " fill="#EF7F22" transform="translate(380,1220)"/>
<path d="M0 0 C2.97 0 5.94 0 9 0 C9 16.17 9 32.34 9 49 C6.03 49 3.06 49 0 49 C0 32.83 0 16.66 0 0 Z " fill="#EF7F22" transform="translate(2024,1204)"/>
<path d="M0 0 C2.97 0 5.94 0 9 0 C9 16.17 9 32.34 9 49 C6.03 49 3.06 49 0 49 C0 32.83 0 16.66 0 0 Z " fill="#EF7F22" transform="translate(1640,1176)"/>
<path d="M0 0 C2.97 0 5.94 0 9 0 C9 16.17 9 32.34 9 49 C6.03 49 3.06 49 0 49 C0 32.83 0 16.66 0 0 Z " fill="#EF7F22" transform="translate(0,1156)"/>
<path d="M0 0 C2.97 0 5.94 0 9 0 C9 16.17 9 32.34 9 49 C6.03 49 3.06 49 0 49 C0 32.83 0 16.66 0 0 Z " fill="#EF7F22" transform="translate(380,1124)"/>
<path d="M0 0 C2.97 0 5.94 0 9 0 C9 16.17 9 32.34 9 49 C6.03 49 3.06 49 0 49 C0 32.83 0 16.66 0 0 Z " fill="#EF7F22" transform="translate(2024,1108)"/>
<path d="M0 0 C2.97 0 5.94 0 9 0 C9 16.17 9 32.34 9 49 C6.03 49 3.06 49 0 49 C0 32.83 0 16.66 0 0 Z " fill="#EF7F22" transform="translate(1640,1080)"/>
<path d="M0 0 C2.97 0 5.94 0 9 0 C9 16.17 9 32.34 9 49 C6.03 49 3.06 49 0 49 C0 32.83 0 16.66 0 0 Z " fill="#EF7F22" transform="translate(0,1060)"/>
<path d="M0 0 C2.97 0 5.94 0 9 0 C9 16.17 9 32.34 9 49 C6.03 49 3.06 49 0 49 C0 32.83 0 16.66 0 0 Z " fill="#EF7F22" transform="translate(380,1028)"/>
<path d="M0 0 C2.97 0 5.94 0 9 0 C9 16.17 9 32.34 9 49 C6.03 49 3.06 49 0 49 C0 32.83 0 16.66 0 0 Z " fill="#EF7F22" transform="translate(2024,1012)"/>
<path d="M0 0 C2.97 0 5.94 0 9 0 C9 16.17 9 32.34 9 49 C6.03 49 3.06 49 0 49 C0 32.83 0 16.66 0 0 Z " fill="#EF7F22" transform="translate(1640,984)"/>
<path d="M0 0 C2.97 0 5.94 0 9 0 C9 16.17 9 32.34 9 49 C6.03 49 3.06 49 0 49 C0 32.83 0 16.66 0 0 Z " fill="#EF7F22" transform="translate(0,964)"/>
<path d="M0 0 C2.97 0 5.94 0 9 0 C9 16.17 9 32.34 9 49 C6.03 49 3.06 49 0 49 C0 32.83 0 16.66 0 0 Z " fill="#EF7F22" transform="translate(380,932)"/>
<path d="M0 0 C2.97 0 5.94 0 9 0 C9 16.17 9 32.34 9 49 C6.03 49 3.06 49 0 49 C0 32.83 0 16.66 0 0 Z " fill="#EF7F22" transform="translate(2024,916)"/>
<path d="M0 0 C2.97 0 5.94 0 9 0 C9 16.17 9 32.34 9 49 C6.03 49 3.06 49 0 49 C0 32.83 0 16.66 0 0 Z " fill="#EF7F22" transform="translate(1640,888)"/>
<path d="M0 0 C2.97 0 5.94 0 9 0 C9 16.17 9 32.34 9 49 C6.03 49 3.06 49 0 49 C0 32.83 0 16.66 0 0 Z " fill="#EF7F22" transform="translate(0,868)"/>
<path d="M0 0 C2.97 0 5.94 0 9 0 C9 16.17 9 32.34 9 49 C6.03 49 3.06 49 0 49 C0 32.83 0 16.66 0 0 Z " fill="#EF7F22" transform="translate(380,836)"/>
<path d="M0 0 C2.97 0 5.94 0 9 0 C9 16.17 9 32.34 9 49 C6.03 49 3.06 49 0 49 C0 32.83 0 16.66 0 0 Z " fill="#EF7F22" transform="translate(2024,820)"/>
<path d="M0 0 C2.97 0 5.94 0 9 0 C9 16.17 9 32.34 9 49 C6.03 49 3.06 49 0 49 C0 32.83 0 16.66 0 0 Z " fill="#EF7F22" transform="translate(1640,792)"/>
<path d="M0 0 C2.97 0 5.94 0 9 0 C9 16.17 9 32.34 9 49 C6.03 49 3.06 49 0 49 C0 32.83 0 16.66 0 0 Z " fill="#EF7F22" transform="translate(0,772)"/>
<path d="M0 0 C2.97 0 5.94 0 9 0 C9 16.17 9 32.34 9 49 C6.03 49 3.06 49 0 49 C0 32.83 0 16.66 0 0 Z " fill="#EF7F22" transform="translate(380,740)"/>
<path d="M0 0 C2.97 0 5.94 0 9 0 C9 16.17 9 32.34 9 49 C6.03 49 3.06 49 0 49 C0 32.83 0 16.66 0 0 Z " fill="#EF7F22" transform="translate(2024,724)"/>
<path d="M0 0 C2.97 0 5.94 0 9 0 C9 16.17 9 32.34 9 49 C6.03 49 3.06 49 0 49 C0 32.83 0 16.66 0 0 Z " fill="#EF7F22" transform="translate(0,676)"/>
<path d="M0 0 C2.97 0 5.94 0 9 0 C9 16.17 9 32.34 9 49 C6.03 49 3.06 49 0 49 C0 32.83 0 16.66 0 0 Z " fill="#EF7F22" transform="translate(2024,628)"/>
<path d="M0 0 C2.97 0 5.94 0 9 0 C9 16.17 9 32.34 9 49 C6.03 49 3.06 49 0 49 C0 32.83 0 16.66 0 0 Z " fill="#EF7F22" transform="translate(0,580)"/>
<path d="M0 0 C2.97 0 5.94 0 9 0 C9 16.17 9 32.34 9 49 C6.03 49 3.06 49 0 49 C0 32.83 0 16.66 0 0 Z " fill="#EF7F22" transform="translate(2024,532)"/>
<path d="M0 0 C2.97 0 5.94 0 9 0 C9 16.17 9 32.34 9 49 C6.03 49 3.06 49 0 49 C0 32.83 0 16.66 0 0 Z " fill="#EF7F22" transform="translate(0,484)"/>
<path d="M0 0 C2.97 0 5.94 0 9 0 C9 16.17 9 32.34 9 49 C6.03 49 3.06 49 0 49 C0 32.83 0 16.66 0 0 Z " fill="#EF7F22" transform="translate(2024,436)"/>
<path d="M0 0 C2.97 0 5.94 0 9 0 C9 16.17 9 32.34 9 49 C6.03 49 3.06 49 0 49 C0 32.83 0 16.66 0 0 Z " fill="#EF7F22" transform="translate(0,388)"/>
<path d="M0 0 C2.97 0 5.94 0 9 0 C9 16.17 9 32.34 9 49 C6.03 49 3.06 49 0 49 C0 32.83 0 16.66 0 0 Z " fill="#EF7F22" transform="translate(2024,340)"/>
<path d="M0 0 C2.97 0 5.94 0 9 0 C9 16.17 9 32.34 9 49 C6.03 49 3.06 49 0 49 C0 32.83 0 16.66 0 0 Z " fill="#EF7F22" transform="translate(0,292)"/>
<path d="M0 0 C2.97 0 5.94 0 9 0 C9 16.17 9 32.34 9 49 C6.03 49 3.06 49 0 49 C0 32.83 0 16.66 0 0 Z " fill="#EF7F22" transform="translate(2024,244)"/>
<path d="M0 0 C2.97 0 5.94 0 9 0 C9 16.17 9 32.34 9 49 C6.03 49 3.06 49 0 49 C0 32.83 0 16.66 0 0 Z " fill="#EF7F22" transform="translate(0,196)"/>
<path d="M0 0 C2.97 0 5.94 0 9 0 C9 16.17 9 32.34 9 49 C6.03 49 3.06 49 0 49 C0 32.83 0 16.66 0 0 Z " fill="#EF7F22" transform="translate(2024,148)"/>
<path d="M0 0 C2.97 0 5.94 0 9 0 C9 16.17 9 32.34 9 49 C6.03 49 3.06 49 0 49 C0 32.83 0 16.66 0 0 Z " fill="#EF7F22" transform="translate(0,100)"/>
<path d="M0 0 C2.97 0 5.94 0 9 0 C9 16.17 9 32.34 9 49 C6.03 49 3.06 49 0 49 C0 32.83 0 16.66 0 0 Z " fill="#EF7F22" transform="translate(2024,52)"/>
<path d="M0 0 C16.17 0 32.34 0 49 0 C49 2.97 49 5.94 49 9 C32.83 9 16.66 9 0 9 C0 6.03 0 3.06 0 0 Z " fill="#EF7F22" transform="translate(1976,0)"/>
<path d="M0 0 C16.17 0 32.34 0 49 0 C49 2.97 49 5.94 49 9 C32.83 9 16.66 9 0 9 C0 6.03 0 3.06 0 0 Z " fill="#EF7F22" transform="translate(1880,0)"/>
<path d="M0 0 C16.17 0 32.34 0 49 0 C49 2.97 49 5.94 49 9 C32.83 9 16.66 9 0 9 C0 6.03 0 3.06 0 0 Z " fill="#EF7F22" transform="translate(1784,0)"/>
<path d="M0 0 C16.17 0 32.34 0 49 0 C49 2.97 49 5.94 49 9 C32.83 9 16.66 9 0 9 C0 6.03 0 3.06 0 0 Z " fill="#EF7F22" transform="translate(1688,0)"/>
<path d="M0 0 C16.17 0 32.34 0 49 0 C49 2.97 49 5.94 49 9 C32.83 9 16.66 9 0 9 C0 6.03 0 3.06 0 0 Z " fill="#EF7F22" transform="translate(272,0)"/>
<path d="M0 0 C16.17 0 32.34 0 49 0 C49 2.97 49 5.94 49 9 C32.83 9 16.66 9 0 9 C0 6.03 0 3.06 0 0 Z " fill="#EF7F22" transform="translate(176,0)"/>
<path d="M0 0 C16.17 0 32.34 0 49 0 C49 2.97 49 5.94 49 9 C32.83 9 16.66 9 0 9 C0 6.03 0 3.06 0 0 Z " fill="#EF7F22" transform="translate(80,0)"/>
<path d="M0 0 C1.9375 0.6875 1.9375 0.6875 4 2 C4.95518572 4.86006934 5.20154433 6.44069521 4.1706543 9.30151367 C3.72633057 10.08244385 3.28200684 10.86337402 2.82421875 11.66796875 C2.33026611 12.55323242 1.83631348 13.43849609 1.32739258 14.35058594 C0.78622803 15.28676758 0.24506348 16.22294922 -0.3125 17.1875 C-0.85559814 18.15333008 -1.39869629 19.11916016 -1.95825195 20.11425781 C-3.07873791 22.105289 -4.20500986 24.09307459 -5.33691406 26.07763672 C-7.3767961 29.66210354 -9.37729933 33.26745703 -11.3737793 36.8762207 C-12.62318683 39.13379169 -13.87915589 41.38758973 -15.13671875 43.640625 C-16.11912993 45.41184851 -17.09420042 47.18840083 -18 49 C-21.16115776 47.63016497 -21.9927092 47.0109362 -24 44 C-21.47576009 27.87743543 -9.75164404 12.52220459 0 0 Z " fill="#EF7F22" transform="translate(1572,76)"/>
<path d="M0 0 C2.97 0 5.94 0 9 0 C9 3.96 9 7.92 9 12 C18.24 12 27.48 12 37 12 C37 14.97 37 17.94 37 21 C32.37359847 21.09901748 27.74781613 21.17153649 23.12060547 21.21972656 C21.54725396 21.2398188 19.97397692 21.26709799 18.40087891 21.30175781 C16.13685728 21.35038494 13.87382427 21.37299135 11.609375 21.390625 C10.90818542 21.41127014 10.20699585 21.43191528 9.48455811 21.45318604 C6.1342589 21.45471879 4.29621234 21.21360332 1.54882812 19.23242188 C-0.12995876 16.81268239 -0.4783996 15.78718685 -0.390625 12.890625 C-0.37773438 12.13652344 -0.36484375 11.38242188 -0.3515625 10.60546875 C-0.31804687 9.82816406 -0.28453125 9.05085938 -0.25 8.25 C-0.23195313 7.45722656 -0.21390625 6.66445312 -0.1953125 5.84765625 C-0.14833082 3.89791652 -0.07659044 1.94880122 0 0 Z " fill="#EF7F22" transform="translate(1640,1464)"/>
<path d="M0 0 C2.97 0 5.94 0 9 0 C8.43890126 5.82021062 6.17982683 10.54470632 3.6875 15.75 C3.03612061 17.11934692 3.03612061 17.11934692 2.37158203 18.51635742 C-2.23800257 27.9250842 -7.94156479 36.47447004 -14 45 C-17.16115776 43.63016497 -17.9927092 43.0109362 -20 40 C-13.4 26.8 -6.8 13.6 0 0 Z " fill="#EF7F22" transform="translate(1424,328)"/>
<path d="M0 0 C3.40312738 1.05875074 6.01353231 2.00902154 9 4 C8.36373062 7.15779781 7.26779764 9.49466914 5.59375 12.23828125 C4.85475464 13.45862061 4.85475464 13.45862061 4.10083008 14.70361328 C3.57255615 15.5645459 3.04428223 16.42547852 2.5 17.3125 C1.41013189 19.10805813 0.32028839 20.9036312 -0.76953125 22.69921875 C-1.31303223 23.59044434 -1.8565332 24.48166992 -2.41650391 25.39990234 C-4.68944487 29.1320672 -6.93973639 32.87763828 -9.1875 36.625 C-9.56132813 37.24544189 -9.93515625 37.86588379 -10.3203125 38.50512695 C-12.24497463 41.70531442 -12.24497463 41.70531442 -14 45 C-17.95820859 44.43454163 -20.6659053 43.19097652 -24 41 C-23.64808594 40.53851562 -23.29617188 40.07703125 -22.93359375 39.6015625 C-21.27547042 37.41093481 -19.6370559 35.20641928 -18 33 C-17.45279297 32.26974609 -16.90558594 31.53949219 -16.34179688 30.78710938 C-11.75411981 24.47705992 -8.31698278 17.95113684 -5.0625 10.875 C-4.56943359 9.823125 -4.07636719 8.77125 -3.56835938 7.6875 C-2.37042441 5.12880396 -1.1811872 2.5664589 0 0 Z " fill="#EF7F22" transform="translate(1040,992)"/>
<path d="M0 0 C0.57105469 1.13953125 1.14210938 2.2790625 1.73046875 3.453125 C6.8905594 13.57891192 12.49140921 23.18373899 18.88354492 32.58691406 C19.41955322 33.38323242 19.95556152 34.17955078 20.5078125 35 C20.98879395 35.70125 21.46977539 36.4025 21.96533203 37.125 C23 39 23 39 23 42 C17.375 45 17.375 45 14 45 C13.52691406 44.00742188 13.05382812 43.01484375 12.56640625 41.9921875 C6.18770527 28.81008329 -1.46987993 16.90376884 -10 5 C-3.45205479 0 -3.45205479 0 0 0 Z " fill="#EF7F22" transform="translate(738,1316)"/>
<path d="M0 0 C1.70273777 2.45951012 2.00201122 4.04927493 2.125 7.0625 C2.71835061 11.89114631 5.77515925 15.1204687 8.6640625 18.875 C11.68317166 22.91394203 14.35320768 27.13400528 17.02929688 31.40454102 C18.55623226 33.82481585 19.96885482 35.96885482 22 38 C22 38.99 22 39.98 22 41 C16.61900957 44.05738093 16.61900957 44.05738093 13.94042969 43.80908203 C11.47447746 42.780878 10.9465552 41.83299969 9.703125 39.4921875 C9.30569092 38.7597583 8.90825684 38.0273291 8.4987793 37.27270508 C8.08668213 36.4814624 7.67458496 35.69021973 7.25 34.875 C6.81534424 34.06764404 6.38068848 33.26028809 5.93286133 32.4284668 C4.60746132 29.95966996 3.30096124 27.48174936 2 25 C0.56452567 22.26976043 -0.87243815 19.54032287 -2.3125 16.8125 C-2.79831543 15.88884644 -2.79831543 15.88884644 -3.29394531 14.9465332 C-5.56262299 10.6830849 -8.03135935 6.80357083 -11 3 C-9.73581754 2.30034557 -8.46334598 1.61565237 -7.1875 0.9375 C-6.47980469 0.55464844 -5.77210938 0.17179687 -5.04296875 -0.22265625 C-3 -1 -3 -1 0 0 Z " fill="#EF7F22" transform="translate(643,1149)"/>
<path d="M0 0 C3.32215057 2.72456861 4.73437103 6.38488609 6.5 10.1875 C11.16009429 19.88979173 17.07314363 28.88099209 23.82421875 37.265625 C25 39 25 39 25 42 C19.375 45 19.375 45 16 45 C15.44054687 43.95585938 14.88109375 42.91171875 14.3046875 41.8359375 C7.44065997 29.18247988 -0.1595795 17.06819818 -8 5 C-5.41495396 3.01776932 -2.95950142 1.37405423 0 0 Z " fill="#EF7F22" transform="translate(400,732)"/>
<path d="M0 0 C3.40312738 1.05875074 6.01353231 2.00902154 9 4 C7.71313073 7.44455804 6.2172274 10.45613375 4.2421875 13.5546875 C3.70231201 14.4103833 3.16243652 15.2660791 2.60620117 16.14770508 C2.03490479 17.0477124 1.4636084 17.94771973 0.875 18.875 C-4.47856177 27.40016292 -9.43843247 36.02845781 -14 45 C-17.95820859 44.43454163 -20.6659053 43.19097652 -24 41 C-20.67577814 35.68528663 -17.34263095 30.42470949 -13.625 25.375 C-8.22786489 17.7822122 -2.95672659 8.87017977 0 0 Z " fill="#EF7F22" transform="translate(1232,660)"/>
<path d="M0 0 C0.30591064 0.61294922 0.61182129 1.22589844 0.92700195 1.85742188 C6.57076738 13.09661662 12.21974944 24.06717898 19.6965332 34.21289062 C23 38.72756744 23 38.72756744 23 42 C17.375 45 17.375 45 14 45 C13.67837891 44.36610352 13.35675781 43.73220703 13.02539062 43.07910156 C7.20513897 31.65031925 1.47439108 20.44716026 -6 10 C-7.3387676 8.00363353 -8.6733878 6.00446448 -10 4 C-8.71086513 3.32845067 -7.41859796 2.66291141 -6.125 2 C-5.40570312 1.62875 -4.68640625 1.2575 -3.9453125 0.875 C-2 0 -2 0 0 0 Z " fill="#EF7F22" transform="translate(978,972)"/>
<path d="M0 0 C1.47265625 2.59765625 1.47265625 2.59765625 3.0625 6.0625 C6.4081192 13.11239467 10.37182982 19.64186569 14.5703125 26.2109375 C14.96379883 26.82678711 15.35728516 27.44263672 15.76269531 28.07714844 C16.63948473 29.43973593 17.5251679 30.79661926 18.41699219 32.14941406 C18.87493164 32.85549805 19.33287109 33.56158203 19.8046875 34.2890625 C20.22476074 34.9279541 20.64483398 35.5668457 21.07763672 36.22509766 C22 38 22 38 22 41 C16.375 44 16.375 44 13 44 C12.49210938 42.96101563 11.98421875 41.92203125 11.4609375 40.8515625 C8.00603263 33.83386601 4.51186376 26.95127759 0.3671875 20.30859375 C-1.10160575 17.82843143 -2.33068505 15.29267385 -3.5625 12.6875 C-5.5353855 8.62002503 -7.57704955 5.93395752 -11 3 C-9.73581754 2.30034557 -8.46334598 1.61565237 -7.1875 0.9375 C-6.47980469 0.55464844 -5.77210938 0.17179687 -5.04296875 -0.22265625 C-3 -1 -3 -1 0 0 Z " fill="#EF7F22" transform="translate(595,309)"/>
<path d="M0 0 C3.55940007 1.51965254 5.85908347 3.63 8.625 6.3125 C15.59514446 12.78275588 23.29350142 18.16996364 31.06811523 23.62475586 C33.07107057 25.05059276 35.03891644 26.51724282 37 28 C36.44271087 31.34373475 35.64826111 34.03312999 34 37 C20.54641783 34.73735209 5.42329452 14.57366624 -4 5 C-2.68 3.35 -1.36 1.7 0 0 Z " fill="#EF7F22" transform="translate(36,1436)"/>
<path d="M0 0 C1.9375 0.6875 1.9375 0.6875 4 2 C5.0078125 4.12109375 5.0078125 4.12109375 5 7 C3.92967639 9.86552666 2.42371438 12.43112221 0.875 15.0625 C0.43430176 15.83384277 -0.00639648 16.60518555 -0.46044922 17.39990234 C-5.92976486 26.83385826 -11.94843505 35.93264808 -18 45 C-21.16115776 43.63016497 -21.9927092 43.0109362 -24 40 C-20.6128274 25.41096372 -9.05458548 11.54787713 0 0 Z " fill="#EF7F22" transform="translate(1524,160)"/>
<path d="M0 0 C0.33 0 0.66 0 1 0 C1 14.85 1 29.7 1 45 C-1.97 45 -4.94 45 -8 45 C-7.98646484 43.77023437 -7.98646484 43.77023437 -7.97265625 42.515625 C-7.86622429 36.40971447 -7.86622429 36.40971447 -10.625 31.3125 C-12.75091058 30.0827337 -12.75091058 30.0827337 -16 29 C-13.8598856 24.09557116 -11.75281058 20.57982721 -8 16.75 C-3.35969617 11.80669125 -1.66568641 6.47645175 0 0 Z " fill="#EF7F22" transform="translate(1648,700)"/>
<path d="M0 0 C2.16185177 1.68834884 2.23286759 2.76218611 2.765625 5.37890625 C-29.81166618 20.5978757 -29.81166618 20.5978757 -41.546875 20.44140625 C-42.42988281 20.43238281 -43.31289062 20.42335938 -44.22265625 20.4140625 C-44.88652344 20.40246094 -45.55039063 20.39085937 -46.234375 20.37890625 C-46.234375 17.40890625 -46.234375 14.43890625 -46.234375 11.37890625 C-44.67203125 11.24935547 -44.67203125 11.24935547 -43.078125 11.1171875 C-29.26652643 9.82245167 -16.80050508 6.66956249 -4.46875 0.1015625 C-2.234375 -0.62109375 -2.234375 -0.62109375 0 0 Z " fill="#EF7F22" transform="translate(1962.234375,1464.62109375)"/>
<path d="M0 0 C3.28031291 2.71025853 4.73213468 6.29914137 6.5 10.0625 C9.62524799 16.51455237 13.07339862 22.69606106 16.8125 28.8125 C17.28042969 29.58279541 17.74835938 30.35309082 18.23046875 31.14672852 C20.63277231 35.11471712 20.63277231 35.11471712 23.65112305 38.60424805 C25 40 25 40 25 42 C19.375 45 19.375 45 16 45 C15.77328613 44.00798584 15.54657227 43.01597168 15.31298828 41.99389648 C14.01372397 37.47143817 11.63608508 33.94758933 8.9921875 30.09765625 C8.50670441 29.3750914 8.02122131 28.65252655 7.52102661 27.9080658 C5.98098242 25.62024222 4.42827346 23.34135685 2.875 21.0625 C1.82336753 19.50513175 0.77257729 17.94719442 -0.27734375 16.38867188 C-2.84186606 12.58579528 -5.41777633 8.79087687 -8 5 C-5.41495396 3.01776932 -2.95950142 1.37405423 0 0 Z " fill="#EF7F22" transform="translate(448,816)"/>
<path d="M0 0 C2.39964301 0.92889407 3.7131121 1.4536722 4.93139648 3.77368164 C5.03178866 7.03160417 3.74769714 8.83041903 2.09765625 11.62109375 C1.45771729 12.71631348 0.81777832 13.8115332 0.15844727 14.93994141 C-0.5398374 16.10601258 -1.23849251 17.27186198 -1.9375 18.4375 C-2.63385443 19.61841198 -3.32924909 20.79989044 -4.02368164 21.98193359 C-8.58017606 29.71521391 -13.19577361 37.41761074 -18 45 C-21.16115776 43.63016497 -21.9927092 43.0109362 -24 40 C-16 26.66666667 -8 13.33333333 0 0 Z " fill="#EF7F22" transform="translate(1284,576)"/>
<path d="M0 0 C3.75152989 1.45220512 3.75152989 1.45220512 4.79443359 3.75146484 C5.08555716 6.93584497 3.95916394 8.48389848 2.3515625 11.2265625 C1.46718506 12.76292358 1.46718506 12.76292358 0.56494141 14.33032227 C-0.07523926 15.41756592 -0.71541992 16.50480957 -1.375 17.625 C-2.66994594 19.87441745 -3.96159383 22.12573662 -5.25 24.37890625 C-5.88808594 25.49410645 -6.52617188 26.60930664 -7.18359375 27.75830078 C-11.07050825 34.69518931 -14.54403396 41.8412132 -18 49 C-21.16115776 47.63016497 -21.9927092 47.0109362 -24 44 C-18.21874937 32.80841969 -12.23914689 21.76424343 -5.93652344 10.85668945 C-5.4521582 10.018396 -4.96779297 9.18010254 -4.46875 8.31640625 C-4.04013672 7.57849854 -3.61152344 6.84059082 -3.16992188 6.08032227 C-2.04613188 4.08203042 -1.00660695 2.05941785 0 0 Z " fill="#EF7F22" transform="translate(1380,408)"/>
<path d="M0 0 C3.74104272 1.44814557 3.74104272 1.44814557 4.81030273 3.72680664 C5.08782587 7.05244105 3.7836425 8.76962552 2.09765625 11.62109375 C1.45820068 12.71631348 0.81874512 13.8115332 0.15991211 14.93994141 C-0.53841091 16.10628223 -1.23756231 17.27212745 -1.9375 18.4375 C-2.63797599 19.61857034 -3.33776468 20.80004858 -4.03686523 21.98193359 C-5.40480647 24.29077313 -6.78002603 26.59475561 -8.15917969 28.89697266 C-9.67178285 31.4467321 -11.13864785 34.00990267 -12.5703125 36.60546875 C-12.91843994 37.22043213 -13.26656738 37.83539551 -13.62524414 38.46899414 C-14.49025819 39.99735837 -15.34147634 41.53350878 -16.19140625 43.0703125 C-18 45 -18 45 -21.21484375 45.3046875 C-22.13394531 45.20414063 -23.05304688 45.10359375 -24 45 C-19.36819079 34.8900757 -14.55318301 24.93138394 -9.1875 15.1875 C-8.73205811 14.35895508 -8.27661621 13.53041016 -7.80737305 12.67675781 C-5.37868807 8.3136152 -2.83839969 4.10873242 0 0 Z " fill="#EF7F22" transform="translate(1332,492)"/>
</svg>
