<?xml version="1.0" encoding="UTF-8"?>
<svg version="1.1" xmlns="http://www.w3.org/2000/svg" width="2025" height="1485">
<path d="M0 0 C2 2 2 2 2 5 C-0.203125 6.7265625 -0.203125 6.7265625 -3.25 8.625 C-10.51025756 13.28558936 -17.53964702 18.25879814 -24.15625 23.80859375 C-29.36737766 28.14785966 -34.88661693 31.10359536 -40.89892578 34.15209961 C-50.77365926 39.27261109 -59.85331452 45.69793236 -69 52 C-72.16115776 50.63016497 -72.9927092 50.0109362 -75 47 C-66.85923952 38.89924326 -57.69828296 33.04118975 -48 27 C-38.56148802 21.2751769 -38.56148802 21.2751769 -29.9375 14.4375 C-23.67389196 8.65777584 -9.11826641 -3.46911175 0 0 Z " fill="#EF7F22" transform="translate(323,89)"/>
<path d="M0 0 C1.9375 0.75 1.9375 0.75 4 2 C4.93874285 4.32191021 5.18641434 5.49766587 4.30664062 7.8684082 C3.92701172 8.50609131 3.54738281 9.14377441 3.15625 9.80078125 C2.73786865 10.52193115 2.3194873 11.24308105 1.88842773 11.98608398 C1.43024658 12.75380127 0.97206543 13.52151855 0.5 14.3125 C-0.43951742 15.9538335 -1.37568545 17.59708849 -2.30859375 19.2421875 C-3.00251221 20.46180176 -3.00251221 20.46180176 -3.71044922 21.70605469 C-9.29310144 31.6368764 -13.17466005 41.97905495 -16.8125 52.75 C-17.19801025 53.88687256 -17.58352051 55.02374512 -17.98071289 56.19506836 C-20.24070521 63.0732405 -21.92861686 69.83822269 -23 77 C-25.97 77 -28.94 77 -32 77 C-31.89324201 48.22872235 -17.25399416 22.005094 0 0 Z " fill="#EF7F22" transform="translate(424,504)"/>
<path d="M0 0 C2.60498931 1.60966432 4.30274791 3.45650234 6.32421875 5.7578125 C7.11441406 6.65628906 7.90460938 7.55476562 8.71875 8.48046875 C11.78443974 12.08104458 14.75390839 15.75374989 17.71875 19.4375 C20.88924797 23.21751211 24.24723271 26.80923376 27.68310547 30.34912109 C31.13671875 33.99563222 31.13671875 33.99563222 31.13671875 37.3203125 C25.7436874 40.38453486 25.7436874 40.38453486 23.15698242 40.11083984 C20.71540918 39.15545445 19.4101338 37.96631108 17.5625 36.109375 C16.89911621 35.44679687 16.23573242 34.78421875 15.55224609 34.1015625 C14.85824707 33.39 14.16424805 32.6784375 13.44921875 31.9453125 C12.73459473 31.22085938 12.0199707 30.49640625 11.28369141 29.75 C5.86657922 24.20130303 0.83545252 18.49550613 -3.86328125 12.3203125 C-4.48074219 11.51207031 -5.09820313 10.70382813 -5.734375 9.87109375 C-7.12505014 8.03077769 -8.50247014 6.18275595 -9.86328125 4.3203125 C-2.79991998 -1.02135446 -2.79991998 -1.02135446 0 0 Z " fill="#EF7F22" transform="translate(1845.86328125,192.6796875)"/>
<path d="M0 0 C0.66 0 1.32 0 2 0 C5.03919798 5.22742052 5.03919798 5.22742052 4.87890625 8.38671875 C0.84103728 20.39264917 -18.23000524 31.42036416 -29 37 C-33.45745375 36.91085093 -36.34223421 35.47437097 -40 33 C-34.90285809 27.65955776 -28.8853328 23.42039834 -23 19 C-22.33274902 18.49855469 -21.66549805 17.99710938 -20.97802734 17.48046875 C-18.9481171 15.9600809 -16.91281228 14.44727601 -14.875 12.9375 C-14.2358667 12.46046631 -13.5967334 11.98343262 -12.93823242 11.49194336 C-10.3071646 9.55647357 -8.11968504 8.03989501 -5 7 C-3.63169753 5.3663139 -3.63169753 5.3663139 -2.4375 3.4375 C-1.18359375 1.49609375 -1.18359375 1.49609375 0 0 Z " fill="#EF7F22" transform="translate(1796,1324)"/>
<path d="M0 0 C6.08530806 1.68011872 11.35690983 4.76685741 16.875 7.75 C26.03460543 12.62987259 35.15194137 16.74113589 45 20 C44.38550003 23.33822957 43.65439171 26.02209492 42 29 C29.57382048 27.57224453 18.59181023 21.43093656 7.625 15.75 C6.59568359 15.21850342 5.56636719 14.68700684 4.50585938 14.1394043 C3.54744141 13.63449463 2.58902344 13.12958496 1.6015625 12.609375 C0.73869629 12.15530273 -0.12416992 11.70123047 -1.01318359 11.23339844 C-3 10 -3 10 -4 8 C-3.22265625 6.0546875 -3.22265625 6.0546875 -2.0625 3.875 C-1.49208984 2.78832031 -1.49208984 2.78832031 -0.91015625 1.6796875 C-0.60980469 1.12539062 -0.30945313 0.57109375 0 0 Z " fill="#EF7F22" transform="translate(512,1060)"/>
<path d="M0 0 C3.50314365 1.75157182 5.02881382 2.81187171 7.6171875 5.52734375 C8.30031006 6.23221924 8.98343262 6.93709473 9.68725586 7.66333008 C10.40921143 8.41380615 11.13116699 9.16428223 11.875 9.9375 C17.81140924 16.01884048 23.82950665 21.6008605 30.70849609 26.59936523 C33.94787097 28.98502279 35.13091827 30.26183654 37 34 C34.69 36.31 32.38 38.62 30 41 C26.73054006 39.36527003 25.22388302 38.47154305 22.79199219 36.01904297 C22.19167175 35.41857147 21.59135132 34.81809998 20.97283936 34.19943237 C20.33727112 33.55354156 19.70170288 32.90765076 19.046875 32.2421875 C18.38665344 31.57913605 17.72643188 30.91608459 17.04620361 30.23294067 C14.94272176 28.11828168 12.84630858 25.99676788 10.75 23.875 C9.32337739 22.43834443 7.89629928 21.00214102 6.46875 19.56640625 C2.97386339 16.04949196 -0.51470062 12.52641453 -4 9 C-2.68 6.03 -1.36 3.06 0 0 Z " fill="#EF7F22" transform="translate(204,1300)"/>
<path d="M0 0 C5.8396633 1.61359117 10.78789461 4.49700198 16 7.5 C16.92321045 8.02883789 17.8464209 8.55767578 18.79760742 9.10253906 C26.55503491 13.6108988 33.8598029 18.57585027 41 24 C40.38550003 27.33822957 39.65439171 30.02209492 38 33 C34.9259158 32.3808276 32.73972253 31.37541172 30.12109375 29.6640625 C29.3731958 29.18163086 28.62529785 28.69919922 27.85473633 28.20214844 C27.05704834 27.68168945 26.25936035 27.16123047 25.4375 26.625 C15.80240965 20.42919959 5.95520357 14.66320651 -4 9 C-2.68 6.03 -1.36 3.06 0 0 Z " fill="#EF7F22" transform="translate(1688,76)"/>
<path d="M0 0 C2.6875 1.5 2.6875 1.5 5.6875 3.5 C4.36088183 7.47985452 2.45015983 8.3603618 -0.9375 10.8125 C-10.19750723 17.68606885 -18.61345216 25.60348146 -26.59375 33.91796875 C-29.3125 36.5 -29.3125 36.5 -31.875 36.5625 C-34.51798984 35.41042751 -36.9036864 34.08293465 -39.3125 32.5 C-30.95701049 22.33791817 -21.63162158 13.62356379 -11.3125 5.5 C-10.56742187 4.85289062 -9.82234375 4.20578125 -9.0546875 3.5390625 C-4.10556289 -0.61970761 -4.10556289 -0.61970761 0 0 Z " fill="#EF7F22" transform="translate(491.3125,432.5)"/>
<path d="M0 0 C3.00135911 5.28239203 3.00135911 5.28239203 2.99609375 8.0625 C2 10 2 10 -0.78125 11.203125 C-2.0084375 11.54859375 -3.235625 11.8940625 -4.5 12.25 C-16.43139823 15.85622346 -27.73785323 21.2117201 -38.21484375 27.96875 C-40 29 -40 29 -42 29 C-43.32 26.03 -44.64 23.06 -46 20 C-42.13257319 17.94322859 -38.25866965 15.89933106 -34.37890625 13.8659668 C-33.06628947 13.17591546 -31.75534519 12.48267108 -30.44628906 11.78588867 C-8.28711643 0 -8.28711643 0 0 0 Z " fill="#EF7F22" transform="translate(410,44)"/>
<path d="M0 0 C3.40312738 1.05875074 6.01353231 2.00902154 9 4 C6.61667906 11.85093957 3.35438833 19.25414703 0.01318359 26.73095703 C-1.0625524 29.14008722 -2.13145287 31.55217117 -3.19921875 33.96484375 C-8.76660915 46.53321829 -8.76660915 46.53321829 -10 49 C-13.98124131 48.43125124 -16.61272328 47.12345246 -20 45 C-19.43152344 43.8140625 -18.86304688 42.628125 -18.27734375 41.40625 C-11.76843515 27.77817836 -5.45358929 14.09126177 0 0 Z " fill="#EF7F22" transform="translate(1624,920)"/>
<path d="M0 0 C5.44673112 1.55122902 10.0499456 4.09254165 14.9375 6.875 C15.71029297 7.30941406 16.48308594 7.74382812 17.27929688 8.19140625 C20.17495601 9.82159136 23.06528108 11.46035514 25.94311523 13.12182617 C30.10576869 15.52429125 34.33809886 17.67420496 38.66796875 19.75390625 C40.97331438 20.98574085 42.95506523 22.37815518 45 24 C43.44499019 27.81684226 40.96404505 30.19195732 38 33 C34.52466617 31.55194424 32.86856827 29.75541989 30.5 26.875 C24.7187793 20.88180121 17.59560229 18.68564538 9.9375 15.921875 C4.96996184 14.09939468 0.56415713 11.66855961 -4 9 C-2.68 6.03 -1.36 3.06 0 0 Z " fill="#EF7F22" transform="translate(1488,404)"/>
<path d="M0 0 C3.6601797 1.2200599 3.82940627 2.02057816 5.625 5.3125 C7.92634019 9.3355836 10.43689451 12.92909969 13.3125 16.5625 C18.50433084 23.32067981 22.29465553 30.68063653 26.08959961 38.28930664 C27.10315756 40.26174869 27.10315756 40.26174869 29 43 C29 43.99 29 44.98 29 46 C23.375 49 23.375 49 20 49 C19.50371094 47.96101563 19.00742188 46.92203125 18.49609375 45.8515625 C13.96734744 36.50225475 9.26156553 27.75519872 2.3125 19.9375 C-0.60251752 16.23463991 -3.0934084 12.69062609 -4 8 C-3.16876336 4.96220792 -1.81368711 2.56008911 0 0 Z " fill="#EF7F22" transform="translate(1904,264)"/>
<path d="M0 0 C3.40312738 1.05875074 6.01353231 2.00902154 9 4 C7.53938926 8.32626551 5.33620545 11.37878019 2.5 14.9375 C1.59838182 16.08576699 0.69870432 17.23555994 -0.19921875 18.38671875 C-0.66118652 18.97888184 -1.1231543 19.57104492 -1.59912109 20.18115234 C-7.66538552 28.05735833 -13.52466694 36.09644265 -18 45 C-21.95820859 44.43454163 -24.6659053 43.19097652 -28 41 C-23.74770853 34.01927577 -19.15995274 27.41659938 -14.28466797 20.86474609 C-9.26454508 14.08074951 -4.61764051 7.06168451 0 0 Z " fill="#EF7F22" transform="translate(1920,1184)"/>
<path d="M0 0 C2 1 2 1 2.65811157 2.76374817 C2.84908417 3.53111801 3.04005676 4.29848785 3.23681641 5.08911133 C3.56693222 6.39100151 3.56693222 6.39100151 3.90371704 7.7191925 C4.24915054 9.13629768 4.24915054 9.13629768 4.6015625 10.58203125 C4.8428891 11.54775558 5.0842157 12.51347992 5.33285522 13.50846863 C5.84268535 15.55618745 6.34847957 17.60491462 6.85058594 19.65454102 C7.6197511 22.79109569 8.40255318 25.92400265 9.1875 29.05664062 C9.68050338 31.04406862 10.17271688 33.03169276 10.6640625 35.01953125 C10.89839996 35.95819534 11.13273743 36.89685944 11.37417603 37.8639679 C11.58794891 38.74135117 11.8017218 39.61873444 12.02197266 40.52270508 C12.21135406 41.2924617 12.40073547 42.06221832 12.59585571 42.8553009 C13 45 13 45 13 49 C10.03 49 7.06 49 4 49 C0.65797438 38.17989577 -2.51280879 27.33288086 -5.375 16.375 C-5.76872803 14.8734436 -5.76872803 14.8734436 -6.17041016 13.34155273 C-8 6.25940801 -8 6.25940801 -8 4 C-6.71349294 3.30289269 -5.42059335 2.61757124 -4.125 1.9375 C-3.40570312 1.55464844 -2.68640625 1.17179687 -1.9453125 0.77734375 C-1.30335937 0.52082031 -0.66140625 0.26429688 0 0 Z " fill="#EF7F22" transform="translate(1992,436)"/>
<path d="M0 0 C3.06699287 1.53349644 3.33514571 4.47455051 4.375 7.5625 C7.47593016 16.36683475 11.6498898 24.56370357 15.94873047 32.83618164 C16.45678223 33.82223389 16.96483398 34.80828613 17.48828125 35.82421875 C17.94759033 36.70166748 18.40689941 37.57911621 18.88012695 38.4831543 C20.00066461 41.00149368 20.57214997 43.28520784 21 46 C15.375 49 15.375 49 12 49 C4.95104929 34.49185418 -1.66569442 19.83368087 -8 5 C-3.02083333 1.20833333 -3.02083333 1.20833333 0 0 Z " fill="#EF7F22" transform="translate(1956,348)"/>
<path d="M0 0 C3.40312738 1.05875074 6.01353231 2.00902154 9 4 C8.4274703 10.94503421 6.55406812 17.10754634 4.3125 23.6875 C3.95671875 24.74517578 3.6009375 25.80285156 3.234375 26.89257812 C0.62275542 34.51682238 -2.30222671 41.82856088 -6 49 C-9.3 49 -12.6 49 -16 49 C-15.50371094 47.7625 -15.00742188 46.525 -14.49609375 45.25 C-8.66720773 30.47069282 -3.7896603 15.43680184 0 0 Z " fill="#EF7F22" transform="translate(1996,1008)"/>
<path d="M0 0 C3.6694229 1.37551648 6.97001855 3.03510654 10.3515625 5.01171875 C11.36863281 5.60533203 12.38570313 6.19894531 13.43359375 6.81054688 C14.48675781 7.42994141 15.53992188 8.04933594 16.625 8.6875 C17.65496094 9.28755859 18.68492187 9.88761719 19.74609375 10.50585938 C22.84215727 12.31871166 25.92279722 14.15534063 29 16 C30.0528418 16.61955566 31.10568359 17.23911133 32.19042969 17.87744141 C33.18719727 18.48120605 34.18396484 19.0849707 35.2109375 19.70703125 C36.1086084 20.24432861 37.0062793 20.78162598 37.93115234 21.33520508 C40 23 40 23 40.88916016 25.00268555 C41.0640852 28.15480393 39.52321892 30.31913471 38 33 C35.01679161 32.38060153 32.76225881 31.42887029 30.1640625 29.84765625 C29.43606445 29.40583008 28.70806641 28.96400391 27.95800781 28.50878906 C26.80316895 27.79287598 26.80316895 27.79287598 25.625 27.0625 C24.82932617 26.57104492 24.03365234 26.07958984 23.21386719 25.57324219 C2.3035748 12.5283659 2.3035748 12.5283659 -4 4 C-2.68 2.68 -1.36 1.36 0 0 Z " fill="#EF7F22" transform="translate(276,1364)"/>
<path d="M0 0 C6.24876149 2.0164715 12.28409114 4.49932816 18.34838867 7.00317383 C20.29452693 7.80509407 22.24383594 8.59892977 24.19335938 9.39257812 C43.24495423 17.20425813 43.24495423 17.20425813 44.81762695 20.94458008 C45.10186921 24.14810826 43.54884251 26.27403719 42 29 C39.0951413 28.38899871 36.87718855 27.49089064 34.33984375 25.9609375 C33.63754639 25.5484375 32.93524902 25.1359375 32.21166992 24.7109375 C31.46119385 24.27007812 30.71071777 23.82921875 29.9375 23.375 C21.25312023 18.39358179 12.36481066 14.86861282 2.90380859 11.66015625 C0.56985224 10.85084386 -1.71877598 9.947095 -4 9 C-2.68 6.03 -1.36 3.06 0 0 Z " fill="#EF7F22" transform="translate(1600,36)"/>
<path d="M0 0 C1.09985229 0.17196899 1.09985229 0.17196899 2.22192383 0.34741211 C8.68883135 1.35116374 15.15938393 2.32018104 21.63671875 3.25390625 C23.13476895 3.47068011 24.6328158 3.68747718 26.13085938 3.90429688 C28.43262345 4.23730012 30.73452163 4.56921877 33.03686523 4.89819336 C35.2997851 5.2219406 37.56204038 5.55002327 39.82421875 5.87890625 C40.51682297 5.97683975 41.20942719 6.07477325 41.92301941 6.17567444 C46.77254449 6.88627225 46.77254449 6.88627225 49 8 C48.43945339 11.36327963 47.58158962 13.99112219 46 17 C38.26761786 16.2284955 30.60038965 15.08917395 22.92382812 13.89819336 C20.74171178 13.56122009 18.55841463 13.23273839 16.375 12.90429688 C14.97387773 12.68802156 13.57283311 12.47124243 12.171875 12.25390625 C10.9147168 12.06127197 9.65755859 11.8686377 8.36230469 11.67016602 C5.34721876 11.06920676 2.79535893 10.25564969 0 9 C0 6.03 0 3.06 0 0 Z " fill="#EF7F22" transform="translate(540,1468)"/>
<path d="M0 0 C3.40312738 1.05875074 6.01353231 2.00902154 9 4 C7.62577032 8.71675707 5.58340584 12.67057499 3 16.8125 C2.19575853 18.12577823 1.3924095 19.4396033 0.58984375 20.75390625 C0.16944824 21.43984863 -0.25094727 22.12579102 -0.68408203 22.83251953 C-3.42018514 27.33922145 -6.06447585 31.90059733 -8.72460938 36.45239258 C-9.12357422 37.13325928 -9.52253906 37.81412598 -9.93359375 38.515625 C-10.28478271 39.11665039 -10.63597168 39.71767578 -10.99780273 40.33691406 C-11.95196574 41.92029004 -12.97455352 43.46183029 -14 45 C-16.3828125 45.29296875 -16.3828125 45.29296875 -19.125 45.1875 C-20.49011719 45.14689453 -20.49011719 45.14689453 -21.8828125 45.10546875 C-22.58148438 45.07066406 -23.28015625 45.03585937 -24 45 C-17.36853471 31.16502608 -9.87336125 17.82198034 -2.36352539 4.45166016 C-1.54693157 2.98339961 -0.75134739 1.50269478 0 0 Z " fill="#EF7F22" transform="translate(88,316)"/>
<path d="M0 0 C0 2.97 0 5.94 0 9 C-7.62906141 11.64576877 -15.36171755 13.88268936 -23.13110352 16.0715332 C-25.32657578 16.69147462 -27.5197074 17.31928099 -29.71289062 17.94726562 C-31.11705117 18.34423253 -32.52134346 18.7407338 -33.92578125 19.13671875 C-35.18817627 19.49467529 -36.45057129 19.85263184 -37.7512207 20.22143555 C-41 21 -41 21 -45 21 C-46.32 18.03 -47.64 15.06 -49 12 C-42.34387718 10.28797023 -35.68696675 8.5790506 -29.02929688 6.87304688 C-26.76312522 6.29187721 -24.49717372 5.70984843 -22.23144531 5.12695312 C-18.98038898 4.29072341 -15.72856128 3.45755601 -12.4765625 2.625 C-11.45881744 2.36251465 -10.44107239 2.1000293 -9.39248657 1.82958984 C-8.45166229 1.58934082 -7.51083801 1.3490918 -6.54150391 1.1015625 C-5.71099518 0.88838379 -4.88048645 0.67520508 -4.02481079 0.45556641 C-2 0 -2 0 0 0 Z " fill="#EF7F22" transform="translate(1545,1456)"/>
<path d="M0 0 C2 1 2 1 2.65811157 2.76374817 C2.84908417 3.53111801 3.04005676 4.29848785 3.23681641 5.08911133 C3.56693222 6.39100151 3.56693222 6.39100151 3.90371704 7.7191925 C4.24915054 9.13629768 4.24915054 9.13629768 4.6015625 10.58203125 C4.8428891 11.54775558 5.0842157 12.51347992 5.33285522 13.50846863 C5.84268535 15.55618745 6.34847957 17.60491462 6.85058594 19.65454102 C7.6197511 22.79109569 8.40255318 25.92400265 9.1875 29.05664062 C9.68050338 31.04406862 10.17271688 33.03169276 10.6640625 35.01953125 C10.89839996 35.95819534 11.13273743 36.89685944 11.37417603 37.8639679 C11.58794891 38.74135117 11.8017218 39.61873444 12.02197266 40.52270508 C12.21135406 41.2924617 12.40073547 42.06221832 12.59585571 42.8553009 C13 45 13 45 13 49 C10.03 49 7.06 49 4 49 C2.28772435 42.91367979 0.57881141 36.8264295 -1.12695312 30.73828125 C-1.70805351 28.66607988 -2.29008189 26.59413852 -2.87304688 24.52246094 C-3.70945807 21.54950279 -4.5425583 18.5756342 -5.375 15.6015625 C-5.76872803 14.20618759 -5.76872803 14.20618759 -6.17041016 12.78262329 C-6.41065918 11.92188202 -6.6509082 11.06114075 -6.8984375 10.17431641 C-7.11161621 9.41486725 -7.32479492 8.65541809 -7.54443359 7.87295532 C-8 6 -8 6 -8 4 C-6.71349294 3.30289269 -5.42059335 2.61757124 -4.125 1.9375 C-3.40570312 1.55464844 -2.68640625 1.17179688 -1.9453125 0.77734375 C-1.30335937 0.52082031 -0.66140625 0.26429688 0 0 Z " fill="#EF7F22" transform="translate(20,972)"/>
<path d="M0 0 C0 2.97 0 5.94 0 9 C-7.62906141 11.64576877 -15.36171755 13.88268936 -23.13110352 16.0715332 C-25.32657578 16.69147462 -27.5197074 17.31928099 -29.71289062 17.94726562 C-31.11705117 18.34423253 -32.52134346 18.7407338 -33.92578125 19.13671875 C-35.18817627 19.49467529 -36.45057129 19.85263184 -37.7512207 20.22143555 C-41 21 -41 21 -45 21 C-46.32 18.03 -47.64 15.06 -49 12 C-42.34387718 10.28797023 -35.68696675 8.5790506 -29.02929688 6.87304688 C-26.76312522 6.29187721 -24.49717372 5.70984843 -22.23144531 5.12695312 C-18.98038898 4.29072341 -15.72856128 3.45755601 -12.4765625 2.625 C-11.45881744 2.36251465 -10.44107239 2.1000293 -9.39248657 1.82958984 C-8.45166229 1.58934082 -7.51083801 1.3490918 -6.54150391 1.1015625 C-5.71099518 0.88838379 -4.88048645 0.67520508 -4.02481079 0.45556641 C-2 0 -2 0 0 0 Z " fill="#EF7F22" transform="translate(501,16)"/>
<path d="M0 0 C3.02452773 2.19604546 5.28694848 4.95757628 7.64453125 7.82421875 C8.12599609 8.39333984 8.60746094 8.96246094 9.10351562 9.54882812 C11.18991277 12.04848688 13.02426661 14.41127724 14.65234375 17.2421875 C16.28765957 19.83813967 17.78858398 20.92744684 20.39453125 22.51171875 C21.18214844 23.01703125 21.96976562 23.52234375 22.78125 24.04296875 C23.54050781 24.52765625 24.29976563 25.01234375 25.08203125 25.51171875 C27.4730514 27.07709721 29.08043223 28.40477241 31.08203125 30.51171875 C31.08203125 34.35115562 29.98686623 37.21000479 28.08203125 40.51171875 C20.17027617 39.09390423 15.12433516 31.46539911 10.49609375 25.47265625 C7.42841046 21.71002853 4.15280538 18.17590851 0.83203125 14.63671875 C0.2292334 13.99412109 -0.37356445 13.35152344 -0.99462891 12.68945312 C-3.92383843 9.58303745 -6.87593868 6.50857016 -9.91796875 3.51171875 C-8.67912556 2.78404872 -7.42628534 2.0801706 -6.16796875 1.38671875 C-5.471875 0.99226562 -4.77578125 0.5978125 -4.05859375 0.19140625 C-1.91796875 -0.48828125 -1.91796875 -0.48828125 0 0 Z " fill="#EF7F22" transform="translate(445.91796875,1000.48828125)"/>
<path d="M0 0 C24.04638743 -0.37983358 24.04638743 -0.37983358 35.1875 0.875 C35.8976123 0.95347168 36.60772461 1.03194336 37.33935547 1.11279297 C41.42709588 1.62858681 45.13897723 2.57088115 49 4 C49 6.97 49 9.94 49 13 C47.68793579 12.80301514 47.68793579 12.80301514 46.34936523 12.60205078 C36.26444654 11.16370667 26.23123502 10.40864894 16.0625 9.875 C14.49280914 9.7882911 12.92314736 9.70105403 11.35351562 9.61328125 C7.56931632 9.40279436 3.78480154 9.1993519 0 9 C0 6.03 0 3.06 0 0 Z " fill="#EF7F22" transform="translate(1392,384)"/>
<path d="M0 0 C0 3.3 0 6.6 0 10 C-7.16545544 12.62150809 -14.01606203 13.14947012 -21.55859375 13.09765625 C-22.34774673 13.0962413 -23.13689972 13.09482635 -23.94996643 13.09336853 C-26.44585115 13.08781555 -28.94164285 13.07527208 -31.4375 13.0625 C-33.13997265 13.05747891 -34.84244673 13.05291707 -36.54492188 13.04882812 C-40.69664988 13.03786158 -44.84830922 13.02062991 -49 13 C-49 10.03 -49 7.06 -49 4 C-48.03811768 3.98541748 -47.07623535 3.97083496 -46.08520508 3.95581055 C-42.45237463 3.89701558 -38.82011272 3.81980389 -35.18774414 3.73754883 C-33.62761795 3.70467537 -32.06738353 3.67653196 -30.50708008 3.65356445 C-21.47533752 3.51711575 -13.18028564 2.96605886 -4.4128418 0.63208008 C-2 0 -2 0 0 0 Z " fill="#EF7F22" transform="translate(1417,1092)"/>
<path d="M0 0 C2.97 0 5.94 0 9 0 C8.26442915 8.38383599 7.08235573 16.68532942 5.84326172 25.00610352 C5.49819464 27.3246303 5.15703841 29.64370854 4.81640625 31.96289062 C4.59658213 33.45055454 4.37653791 34.93818594 4.15625 36.42578125 C4.05517944 37.11231277 3.95410889 37.7988443 3.84997559 38.50617981 C3.32418534 42.02619018 2.73502247 45.51745346 2 49 C-1.3 49 -4.6 49 -8 49 C-6.67162287 40.33256759 -5.3381486 31.66592922 -4 23 C-3.84563477 21.99952637 -3.69126953 20.99905273 -3.53222656 19.96826172 C-3.12783862 17.35349476 -2.72075946 14.73916489 -2.3125 12.125 C-2.19350342 11.35438232 -2.07450684 10.58376465 -1.9519043 9.78979492 C-1.43073445 6.47001439 -0.81609663 3.26438651 0 0 Z " fill="#EF7F22" transform="translate(16,496)"/>
<path d="M0 0 C0 2.97 0 5.94 0 9 C-4.950547 10.83849143 -9.78261491 11.73201879 -14.9765625 12.5078125 C-15.82423187 12.63815887 -16.67190125 12.76850525 -17.54525757 12.90280151 C-19.32829165 13.17583034 -21.11171879 13.44630327 -22.89550781 13.71435547 C-25.62405162 14.12485732 -28.35112661 14.54421063 -31.078125 14.96484375 C-32.81502455 15.22968935 -34.55200123 15.49402971 -36.2890625 15.7578125 C-37.50947739 15.94526535 -37.50947739 15.94526535 -38.75454712 16.13650513 C-42.22403094 16.65463932 -45.48345243 17 -49 17 C-49 14.03 -49 11.06 -49 8 C-36.14101144 4.80942389 -23.02758431 3.20877789 -9.91577148 1.43310547 C-8.01706782 1.15107413 -6.12433797 0.8240148 -4.24243164 0.44580078 C-2 0 -2 0 0 0 Z " fill="#EF7F22" transform="translate(597,0)"/>
<path d="M0 0 C2.97 0 5.94 0 9 0 C10.00696601 13.76186875 6.9781583 26.63270396 4 40 C3.79858398 40.91040039 3.59716797 41.82080078 3.38964844 42.75878906 C2.92858551 44.83967097 2.46465323 46.91991685 2 49 C-1.98124131 48.43125124 -4.61272328 47.12345246 -8 45 C-7.82871582 44.34741211 -7.65743164 43.69482422 -7.48095703 43.02246094 C-3.76384427 28.69112141 -0.95807082 14.78402382 0 0 Z " fill="#EF7F22" transform="translate(2012,916)"/>
<path d="M0 0 C2.97 0 5.94 0 9 0 C8.44898181 5.97837833 7.14940776 11.10868793 5.09375 16.734375 C4.80898804 17.53482239 4.52422607 18.33526978 4.23083496 19.15997314 C3.32821109 21.6927983 2.4145933 24.2214753 1.5 26.75 C0.58763416 29.29355077 -0.32242124 31.83790874 -1.23083496 34.38287354 C-1.79454102 35.95983904 -2.36091395 37.53585447 -2.93029785 39.11077881 C-4.10744161 42.38450806 -5.19700336 45.61560879 -6 49 C-9.98124131 48.43125124 -12.61272328 47.12345246 -16 45 C-15.59273682 43.96782349 -15.59273682 43.96782349 -15.17724609 42.91479492 C-9.60650747 28.74748481 -4.32693317 14.59900215 0 0 Z " fill="#EF7F22" transform="translate(44,404)"/>
<path d="M0 0 C2.97 0 5.94 0 9 0 C9.58153505 4.56605545 10.15051166 9.13345894 10.70898438 13.70239258 C10.89973337 15.2493477 11.09363124 16.79591853 11.29101562 18.34204102 C12.60162507 28.62965646 13.2752636 38.62313571 13 49 C10.03 49 7.06 49 4 49 C0.62473743 15.70460652 0.62473743 15.70460652 0 0 Z " fill="#EF7F22" transform="translate(2008,532)"/>
<path d="M0 0 C6.58316918 -0.08171506 12.96684906 0.16092928 19.5078125 0.875 C20.78505692 1.00817627 20.78505692 1.00817627 22.08810425 1.14404297 C24.76760412 1.42453564 27.44628352 1.71213216 30.125 2 C31.95828349 2.19318192 33.79161652 2.38589435 35.625 2.578125 C40.08392341 3.04666733 44.54212654 3.52157545 49 4 C49 6.97 49 9.94 49 13 C38.2476574 13.34642294 27.84569513 12.26552133 17.1875 11 C15.51244736 10.80661862 13.83731738 10.61390586 12.16210938 10.421875 C8.10714216 9.95560255 4.05332198 9.48035586 0 9 C0 6.03 0 3.06 0 0 Z " fill="#EF7F22" transform="translate(1412,0)"/>
<path d="M0 0 C1.21004675 1.51331661 2.34123831 3.08982964 3.4375 4.6875 C6.59956672 9.15800812 9.92165217 13.35756238 13.5 17.5 C17.02098924 21.61261332 20.46898318 25.75473141 23.75 30.0625 C24.40484375 30.91972656 25.0596875 31.77695313 25.734375 32.66015625 C27 35 27 35 26.953125 37.18359375 C25.72182043 39.5301373 24.36004706 39.92182551 22 41 C-7.08330315 12.75009055 -7.08330315 12.75009055 -10 4 C-8.71086513 3.32845067 -7.41859796 2.66291141 -6.125 2 C-5.40570313 1.62875 -4.68640625 1.2575 -3.9453125 0.875 C-2 0 -2 0 0 0 Z " fill="#EF7F22" transform="translate(142,1232)"/>
<path d="M0 0 C10.1409475 2.50029487 20.26106424 5.08023615 30.375 7.6875 C31.58196533 7.99695557 32.78893066 8.30641113 34.0324707 8.62524414 C35.72956177 9.06404907 35.72956177 9.06404907 37.4609375 9.51171875 C38.98920166 9.90556763 38.98920166 9.90556763 40.54833984 10.30737305 C43 11 43 11 45 12 C45 14.97 45 17.94 45 21 C35.84639552 19.4840115 26.8940428 17.36316419 17.89916992 15.11376953 C15.41313332 14.49392464 12.92446731 13.88549184 10.43554688 13.27734375 C8.85139107 12.88350142 7.26740021 12.48899486 5.68359375 12.09375 C4.94096786 11.91348267 4.19834198 11.73321533 3.43321228 11.54748535 C-1.77112877 10.22887123 -1.77112877 10.22887123 -4 8 C-2.68 5.36 -1.36 2.72 0 0 Z " fill="#EF7F22" transform="translate(448,1448)"/>
<path d="M0 0 C3.10096154 5.45769231 3.10096154 5.45769231 2.58984375 8.203125 C2.39519531 8.79609375 2.20054688 9.3890625 2 10 C-14.04689361 13.10585038 -29.68838209 13.34468633 -46 13 C-46 10.03 -46 7.06 -46 4 C-45.30140869 3.98541748 -44.60281738 3.97083496 -43.88305664 3.95581055 C-31.10263882 3.65878679 -18.63548382 3.23927289 -6.09765625 0.62109375 C-3 0 -3 0 0 0 Z " fill="#EF7F22" transform="translate(1450,1472)"/>
<path d="M0 0 C16.17 0 32.34 0 49 0 C49 2.97 49 5.94 49 9 C32.83 9 16.66 9 0 9 C0 6.03 0 3.06 0 0 Z " fill="#EF7F22" transform="translate(1308,1476)"/>
<path d="M0 0 C16.17 0 32.34 0 49 0 C49 2.97 49 5.94 49 9 C32.83 9 16.66 9 0 9 C0 6.03 0 3.06 0 0 Z " fill="#EF7F22" transform="translate(1212,1476)"/>
<path d="M0 0 C16.17 0 32.34 0 49 0 C49 2.97 49 5.94 49 9 C32.83 9 16.66 9 0 9 C0 6.03 0 3.06 0 0 Z " fill="#EF7F22" transform="translate(1116,1476)"/>
<path d="M0 0 C16.17 0 32.34 0 49 0 C49 2.97 49 5.94 49 9 C32.83 9 16.66 9 0 9 C0 6.03 0 3.06 0 0 Z " fill="#EF7F22" transform="translate(1020,1476)"/>
<path d="M0 0 C16.17 0 32.34 0 49 0 C49 2.97 49 5.94 49 9 C32.83 9 16.66 9 0 9 C0 6.03 0 3.06 0 0 Z " fill="#EF7F22" transform="translate(924,1476)"/>
<path d="M0 0 C16.17 0 32.34 0 49 0 C49 2.97 49 5.94 49 9 C32.83 9 16.66 9 0 9 C0 6.03 0 3.06 0 0 Z " fill="#EF7F22" transform="translate(828,1476)"/>
<path d="M0 0 C16.17 0 32.34 0 49 0 C49 2.97 49 5.94 49 9 C32.83 9 16.66 9 0 9 C0 6.03 0 3.06 0 0 Z " fill="#EF7F22" transform="translate(732,1476)"/>
<path d="M0 0 C16.17 0 32.34 0 49 0 C49 2.97 49 5.94 49 9 C32.83 9 16.66 9 0 9 C0 6.03 0 3.06 0 0 Z " fill="#EF7F22" transform="translate(636,1476)"/>
<path d="M0 0 C16.17 0 32.34 0 49 0 C49 2.97 49 5.94 49 9 C32.83 9 16.66 9 0 9 C0 6.03 0 3.06 0 0 Z " fill="#EF7F22" transform="translate(1272,1096)"/>
<path d="M0 0 C16.17 0 32.34 0 49 0 C49 2.97 49 5.94 49 9 C32.83 9 16.66 9 0 9 C0 6.03 0 3.06 0 0 Z " fill="#EF7F22" transform="translate(1176,1096)"/>
<path d="M0 0 C16.17 0 32.34 0 49 0 C49 2.97 49 5.94 49 9 C32.83 9 16.66 9 0 9 C0 6.03 0 3.06 0 0 Z " fill="#EF7F22" transform="translate(1080,1096)"/>
<path d="M0 0 C16.17 0 32.34 0 49 0 C49 2.97 49 5.94 49 9 C32.83 9 16.66 9 0 9 C0 6.03 0 3.06 0 0 Z " fill="#EF7F22" transform="translate(984,1096)"/>
<path d="M0 0 C16.17 0 32.34 0 49 0 C49 2.97 49 5.94 49 9 C32.83 9 16.66 9 0 9 C0 6.03 0 3.06 0 0 Z " fill="#EF7F22" transform="translate(888,1096)"/>
<path d="M0 0 C16.17 0 32.34 0 49 0 C49 2.97 49 5.94 49 9 C32.83 9 16.66 9 0 9 C0 6.03 0 3.06 0 0 Z " fill="#EF7F22" transform="translate(792,1096)"/>
<path d="M0 0 C16.17 0 32.34 0 49 0 C49 2.97 49 5.94 49 9 C32.83 9 16.66 9 0 9 C0 6.03 0 3.06 0 0 Z " fill="#EF7F22" transform="translate(696,1096)"/>
<path d="M0 0 C2.97 0 5.94 0 9 0 C9 16.17 9 32.34 9 49 C6.03 49 3.06 49 0 49 C0 32.83 0 16.66 0 0 Z " fill="#EF7F22" transform="translate(1632,828)"/>
<path d="M0 0 C2.97 0 5.94 0 9 0 C9 16.17 9 32.34 9 49 C6.03 49 3.06 49 0 49 C0 32.83 0 16.66 0 0 Z " fill="#EF7F22" transform="translate(2016,820)"/>
<path d="M0 0 C2.97 0 5.94 0 9 0 C9 16.17 9 32.34 9 49 C6.03 49 3.06 49 0 49 C0 32.83 0 16.66 0 0 Z " fill="#EF7F22" transform="translate(384,820)"/>
<path d="M0 0 C2.97 0 5.94 0 9 0 C9 16.17 9 32.34 9 49 C6.03 49 3.06 49 0 49 C0 32.83 0 16.66 0 0 Z " fill="#EF7F22" transform="translate(0,784)"/>
<path d="M0 0 C2.97 0 5.94 0 9 0 C9 16.17 9 32.34 9 49 C6.03 49 3.06 49 0 49 C0 32.83 0 16.66 0 0 Z " fill="#EF7F22" transform="translate(1632,732)"/>
<path d="M0 0 C2.97 0 5.94 0 9 0 C9 16.17 9 32.34 9 49 C6.03 49 3.06 49 0 49 C0 32.83 0 16.66 0 0 Z " fill="#EF7F22" transform="translate(2016,724)"/>
<path d="M0 0 C2.97 0 5.94 0 9 0 C9 16.17 9 32.34 9 49 C6.03 49 3.06 49 0 49 C0 32.83 0 16.66 0 0 Z " fill="#EF7F22" transform="translate(384,724)"/>
<path d="M0 0 C2.97 0 5.94 0 9 0 C9 16.17 9 32.34 9 49 C6.03 49 3.06 49 0 49 C0 32.83 0 16.66 0 0 Z " fill="#EF7F22" transform="translate(0,688)"/>
<path d="M0 0 C2.97 0 5.94 0 9 0 C9 16.17 9 32.34 9 49 C6.03 49 3.06 49 0 49 C0 32.83 0 16.66 0 0 Z " fill="#EF7F22" transform="translate(1632,636)"/>
<path d="M0 0 C2.97 0 5.94 0 9 0 C9 16.17 9 32.34 9 49 C6.03 49 3.06 49 0 49 C0 32.83 0 16.66 0 0 Z " fill="#EF7F22" transform="translate(2016,628)"/>
<path d="M0 0 C2.97 0 5.94 0 9 0 C9 16.17 9 32.34 9 49 C6.03 49 3.06 49 0 49 C0 32.83 0 16.66 0 0 Z " fill="#EF7F22" transform="translate(384,628)"/>
<path d="M0 0 C16.17 0 32.34 0 49 0 C49 2.97 49 5.94 49 9 C32.83 9 16.66 9 0 9 C0 6.03 0 3.06 0 0 Z " fill="#EF7F22" transform="translate(1296,384)"/>
<path d="M0 0 C16.17 0 32.34 0 49 0 C49 2.97 49 5.94 49 9 C32.83 9 16.66 9 0 9 C0 6.03 0 3.06 0 0 Z " fill="#EF7F22" transform="translate(1200,384)"/>
<path d="M0 0 C16.17 0 32.34 0 49 0 C49 2.97 49 5.94 49 9 C32.83 9 16.66 9 0 9 C0 6.03 0 3.06 0 0 Z " fill="#EF7F22" transform="translate(1104,384)"/>
<path d="M0 0 C16.17 0 32.34 0 49 0 C49 2.97 49 5.94 49 9 C32.83 9 16.66 9 0 9 C0 6.03 0 3.06 0 0 Z " fill="#EF7F22" transform="translate(1008,384)"/>
<path d="M0 0 C16.17 0 32.34 0 49 0 C49 2.97 49 5.94 49 9 C32.83 9 16.66 9 0 9 C0 6.03 0 3.06 0 0 Z " fill="#EF7F22" transform="translate(912,384)"/>
<path d="M0 0 C16.17 0 32.34 0 49 0 C49 2.97 49 5.94 49 9 C32.83 9 16.66 9 0 9 C0 6.03 0 3.06 0 0 Z " fill="#EF7F22" transform="translate(816,384)"/>
<path d="M0 0 C16.17 0 32.34 0 49 0 C49 2.97 49 5.94 49 9 C32.83 9 16.66 9 0 9 C0 6.03 0 3.06 0 0 Z " fill="#EF7F22" transform="translate(720,384)"/>
<path d="M0 0 C16.17 0 32.34 0 49 0 C49 2.97 49 5.94 49 9 C32.83 9 16.66 9 0 9 C0 6.03 0 3.06 0 0 Z " fill="#EF7F22" transform="translate(624,384)"/>
<path d="M0 0 C16.17 0 32.34 0 49 0 C49 2.97 49 5.94 49 9 C32.83 9 16.66 9 0 9 C0 6.03 0 3.06 0 0 Z " fill="#EF7F22" transform="translate(1316,0)"/>
<path d="M0 0 C16.17 0 32.34 0 49 0 C49 2.97 49 5.94 49 9 C32.83 9 16.66 9 0 9 C0 6.03 0 3.06 0 0 Z " fill="#EF7F22" transform="translate(1220,0)"/>
<path d="M0 0 C16.17 0 32.34 0 49 0 C49 2.97 49 5.94 49 9 C32.83 9 16.66 9 0 9 C0 6.03 0 3.06 0 0 Z " fill="#EF7F22" transform="translate(1124,0)"/>
<path d="M0 0 C16.17 0 32.34 0 49 0 C49 2.97 49 5.94 49 9 C32.83 9 16.66 9 0 9 C0 6.03 0 3.06 0 0 Z " fill="#EF7F22" transform="translate(1028,0)"/>
<path d="M0 0 C16.17 0 32.34 0 49 0 C49 2.97 49 5.94 49 9 C32.83 9 16.66 9 0 9 C0 6.03 0 3.06 0 0 Z " fill="#EF7F22" transform="translate(932,0)"/>
<path d="M0 0 C16.17 0 32.34 0 49 0 C49 2.97 49 5.94 49 9 C32.83 9 16.66 9 0 9 C0 6.03 0 3.06 0 0 Z " fill="#EF7F22" transform="translate(836,0)"/>
<path d="M0 0 C16.17 0 32.34 0 49 0 C49 2.97 49 5.94 49 9 C32.83 9 16.66 9 0 9 C0 6.03 0 3.06 0 0 Z " fill="#EF7F22" transform="translate(740,0)"/>
<path d="M0 0 C16.17 0 32.34 0 49 0 C49 2.97 49 5.94 49 9 C32.83 9 16.66 9 0 9 C0 6.03 0 3.06 0 0 Z " fill="#EF7F22" transform="translate(644,0)"/>
<path d="M0 0 C4.50345267 1.45406682 7.63443493 3.97950016 11.125 7.0625 C12.28059284 8.06195824 13.43685324 9.06064511 14.59375 10.05859375 C15.16738281 10.55601074 15.74101563 11.05342773 16.33203125 11.56591797 C18.72945798 13.62717158 21.17382786 15.62813994 23.625 17.625 C24.50027344 18.34300781 25.37554688 19.06101563 26.27734375 19.80078125 C28.21016548 21.36201315 30.16293228 22.89869548 32.12890625 24.41796875 C33.13824219 25.20816406 34.14757813 25.99835938 35.1875 26.8125 C36.10917969 27.52019531 37.03085938 28.22789062 37.98046875 28.95703125 C40 31 40 31 40 35 C39.34 35.66 38.68 36.32 38 37 C33.82904567 36.79239594 30.80218903 33.81525649 27.625 31.375 C19.98623087 25.62103322 12.10450717 20.26071403 4.15087891 14.95263672 C2.78068604 14.0305542 2.78068604 14.0305542 1.3828125 13.08984375 C0.56184082 12.54191162 -0.25913086 11.99397949 -1.10498047 11.42944336 C-3 10 -3 10 -4 8 C-3.22265625 6.0546875 -3.22265625 6.0546875 -2.0625 3.875 C-1.49208984 2.78832031 -1.49208984 2.78832031 -0.91015625 1.6796875 C-0.60980469 1.12539062 -0.30945312 0.57109375 0 0 Z " fill="#EF7F22" transform="translate(1768,128)"/>
<path d="M0 0 C2.97 0 5.94 0 9 0 C9.54785156 1.25683594 10.09570312 2.51367188 10.66015625 3.80859375 C13.10336956 9.30233032 15.75044567 14.68469526 18.4375 20.0625 C18.90220703 21.00416016 19.36691406 21.94582031 19.84570312 22.91601562 C22.3453177 27.92570341 24.95296021 32.70808374 28.10180664 37.34155273 C29 39 29 39 29 42 C23.73019961 44.99420476 23.73019961 44.99420476 21.03125 45.015625 C17.76893811 43.38446905 16.73283322 40.35610825 15.25 37.1875 C14.91073486 36.48625 14.57146973 35.785 14.22192383 35.0625 C8.81477557 23.66384854 4.40304798 11.81371641 0 0 Z " fill="#EF7F22" transform="translate(392,916)"/>
<path d="M0 0 C2.03435531 3.72965139 3 5.66905042 3 10 C-6.37698936 14.9367091 -15.90882679 19.34971827 -25.6875 23.4375 C-26.72648437 23.87433105 -27.76546875 24.31116211 -28.8359375 24.76123047 C-29.82207031 25.16873535 -30.80820313 25.57624023 -31.82421875 25.99609375 C-32.70166748 26.35888428 -33.57911621 26.7216748 -34.4831543 27.09545898 C-36.97993453 27.99278858 -39.38874754 28.55039007 -42 29 C-42 26.03 -42 23.06 -42 20 C-40.05673828 19.21689453 -40.05673828 19.21689453 -38.07421875 18.41796875 C-27.55250113 14.0899499 -17.60473423 9.35741107 -7.86791992 3.45581055 C-7.12388916 3.0050415 -6.3798584 2.55427246 -5.61328125 2.08984375 C-4.96141846 1.68628662 -4.30955566 1.28272949 -3.63793945 0.86694336 C-2 0 -2 0 0 0 Z " fill="#EF7F22" transform="translate(1506,1064)"/>
<path d="M0 0 C2 1 2 1 2.74267578 2.72387695 C2.9745459 3.47113037 3.20641602 4.21838379 3.4453125 4.98828125 C3.71408203 5.83068359 3.98285156 6.67308594 4.25976562 7.54101562 C4.54529297 8.45560547 4.83082031 9.37019531 5.125 10.3125 C7.87063956 18.90522509 10.98542728 27.24577657 14.59814453 35.51293945 C15.99944156 38.83749775 17.00744257 41.30039852 16.96875 44.9375 C15.75091271 47.53031487 14.54772021 47.85570673 12 49 C10.09912906 45.39846927 8.2052656 41.79329612 6.3125 38.1875 C5.78205078 37.18267578 5.25160156 36.17785156 4.70507812 35.14257812 C-4.78195456 17.04155257 -4.78195456 17.04155257 -6.8125 8.8125 C-7.04582031 7.89082031 -7.27914062 6.96914062 -7.51953125 6.01953125 C-7.67808594 5.35308594 -7.83664063 4.68664063 -8 4 C-6.71349294 3.30289269 -5.42059335 2.61757124 -4.125 1.9375 C-3.40570313 1.55464844 -2.68640625 1.17179687 -1.9453125 0.77734375 C-1.30335937 0.52082031 -0.66140625 0.26429687 0 0 Z " fill="#EF7F22" transform="translate(48,1064)"/>
<path d="M0 0 C3.875 1.875 3.875 1.875 5 3 C5.75943069 6.88153462 5.59672605 8.94162342 3.63671875 12.41796875 C-0.73302424 18.5428466 -5.67688111 24.18252553 -10.61914062 29.84643555 C-14.78707135 34.65276411 -18.51470033 39.67387304 -22 45 C-25.16115776 43.63016497 -25.9927092 43.0109362 -28 40 C-24.66123129 34.94232162 -21.31635765 29.88875699 -17.96582031 24.83886719 C-16.82742303 23.12122849 -15.69068693 21.40248758 -14.55566406 19.68261719 C-12.92170188 17.20735048 -11.28176033 14.73613984 -9.640625 12.265625 C-9.13629944 11.49881409 -8.63197388 10.73200317 -8.11236572 9.94195557 C-5.66662671 6.27257766 -3.30162059 2.9728285 0 0 Z " fill="#EF7F22" transform="translate(144,236)"/>
<path d="M0 0 C2.97 0 5.94 0 9 0 C8.32288996 4.27488875 6.89972142 7.96580985 5.234375 11.953125 C4.95909973 12.61278259 4.68382446 13.27244019 4.40020752 13.9520874 C3.81745702 15.34484177 3.23234527 16.73661023 2.64501953 18.12744141 C1.75990844 20.22650191 0.88532971 22.32972547 0.01171875 24.43359375 C-2.94924565 31.51043722 -6.01908229 38.42263425 -10 45 C-13.95008059 44.31620454 -16.63457018 43.21156817 -20 41 C-19.48953125 40.06994141 -19.48953125 40.06994141 -18.96875 39.12109375 C-17.92362802 37.21152248 -16.88236876 35.29983492 -15.84375 33.38671875 C-14.58281978 31.07056091 -13.31266649 28.76169649 -12.03125 26.45703125 C-7.30508645 17.87375255 -3.43543317 9.17416812 0 0 Z " fill="#EF7F22" transform="translate(1964,1100)"/>
<path d="M0 0 C3.40312738 1.05875074 6.01353231 2.00902154 9 4 C7.64218786 7.0308418 6.11581436 9.13650673 3.77539062 11.48339844 C3.12131226 12.14378113 2.46723389 12.80416382 1.79333496 13.48455811 C1.08809692 14.18574768 0.38285889 14.88693726 -0.34375 15.609375 C-1.43109436 16.69958954 -1.43109436 16.69958954 -2.54040527 17.81182861 C-4.07119011 19.34397279 -5.60449697 20.87360075 -7.14013672 22.40087891 C-9.4981077 24.74811631 -11.84519546 27.10585778 -14.19140625 29.46484375 C-15.67904636 30.95116282 -17.16730644 32.43686169 -18.65625 33.921875 C-19.36148804 34.6311615 -20.06672607 35.340448 -20.79333496 36.07122803 C-21.44741333 36.71900208 -22.1014917 37.36677612 -22.77539062 38.03417969 C-23.35115845 38.60835632 -23.92692627 39.18253296 -24.5201416 39.77410889 C-26 41 -26 41 -28 41 C-29.32 38.03 -30.64 35.06 -32 32 C-31.09378906 31.31035156 -30.18757813 30.62070313 -29.25390625 29.91015625 C-17.73397293 21.06220086 -8.45672088 11.81541853 0 0 Z " fill="#EF7F22" transform="translate(1576,1004)"/>
<path d="M0 0 C4.72122179 1.7976596 9.25361312 3.95698379 13.8125 6.125 C14.64185059 6.51880859 15.47120117 6.91261719 16.32568359 7.31835938 C21.94891297 9.9986403 27.5490972 12.72261266 33.125 15.5 C33.8053833 15.83789551 34.4857666 16.17579102 35.18676758 16.52392578 C39.87628007 18.87628007 39.87628007 18.87628007 41 20 C41.07179964 21.51928038 41.08392007 23.04167482 41.0625 24.5625 C41.05347656 25.38878906 41.04445313 26.21507812 41.03515625 27.06640625 C41.02355469 27.70449219 41.01195312 28.34257813 41 29 C36.78532741 27.67952824 32.89289031 26.08212652 28.9296875 24.13671875 C27.785 23.57919922 26.6403125 23.02167969 25.4609375 22.44726562 C23.68589844 21.57618164 23.68589844 21.57618164 21.875 20.6875 C13.35222842 16.50660705 4.81075737 12.53980279 -4 9 C-2.68 6.03 -1.36 3.06 0 0 Z " fill="#EF7F22" transform="translate(360,1412)"/>
<path d="M0 0 C0.66 0 1.32 0 2 0 C5.03250774 5.21591331 5.03250774 5.21591331 4.90234375 8.35546875 C3.70548331 11.86315066 1.54898133 14.04189005 -1 16.625 C-2.0115539 17.68648284 -3.02063009 18.75033181 -4.02734375 19.81640625 C-4.53120605 20.3489502 -5.03506836 20.88149414 -5.55419922 21.43017578 C-7.66524764 23.72231381 -9.61337164 26.13219147 -11.5625 28.5625 C-14.76294771 32.52550926 -18.03840434 36.3949478 -21.4375 40.1875 C-22.26121094 41.10917969 -23.08492187 42.03085938 -23.93359375 42.98046875 C-26 45 -26 45 -28 45 C-29.32 42.03 -30.64 39.06 -32 36 C-31.06615479 35.08710205 -30.13230957 34.1742041 -29.17016602 33.23364258 C-25.70674765 29.84264769 -22.2566033 26.4384126 -18.81030273 23.0300293 C-17.31714596 21.55698238 -15.82041809 20.08754616 -14.32006836 18.62182617 C-12.16350462 16.51380475 -10.02013631 14.3931123 -7.87890625 12.26953125 C-7.20598038 11.61725052 -6.5330545 10.96496979 -5.83973694 10.29292297 C-1.38566124 5.94478054 -1.38566124 5.94478054 0 0 Z " fill="#EF7F22" transform="translate(208,164)"/>
<path d="M0 0 C2.37547847 0.91954005 3.70881029 1.51321871 5.03515625 3.73046875 C4.97849526 7.38825014 2.67808438 9.61730976 0.4375 12.3125 C-0.29666138 13.22032227 -0.29666138 13.22032227 -1.0456543 14.14648438 C-8.8044595 23.59514645 -17.32768035 32.39328035 -26 41 C-29.16115776 39.63016497 -29.9927092 39.0109362 -32 36 C-22.45845795 22.96282388 -11.57914044 11.25549987 0 0 Z " fill="#EF7F22" transform="translate(1864,1260)"/>
<path d="M0 0 C0.3623877 0.66942627 0.72477539 1.33885254 1.09814453 2.02856445 C2.77358543 5.12330582 4.44929149 8.21790353 6.125 11.3125 C6.69476563 12.36501953 7.26453125 13.41753906 7.8515625 14.50195312 C8.99896973 16.62074488 10.14904392 18.73809451 11.30175781 20.85400391 C12.42812655 22.94060362 13.53711179 25.03668698 14.62792969 27.14208984 C15.14000977 28.12000488 15.65208984 29.09791992 16.1796875 30.10546875 C16.62812012 30.9771167 17.07655273 31.84876465 17.53857422 32.74682617 C18.87851435 35.11375723 18.87851435 35.11375723 21.17626953 36.5559082 C21.77810059 37.0324585 22.37993164 37.50900879 23 38 C23 39.32 23 40.64 23 42 C17.375 45 17.375 45 14 45 C13.77328613 44.00798584 13.54657227 43.01597168 13.31298828 41.99389648 C12.01372397 37.47143817 9.63608508 33.94758933 6.9921875 30.09765625 C6.50670441 29.3750914 6.02122131 28.65252655 5.52102661 27.9080658 C3.98098242 25.62024222 2.42827346 23.34135685 0.875 21.0625 C-0.17663247 19.50513175 -1.22742271 17.94719442 -2.27734375 16.38867188 C-4.84186606 12.58579528 -7.41777633 8.79087687 -10 5 C-3.45205479 0 -3.45205479 0 0 0 Z " fill="#EF7F22" transform="translate(90,1152)"/>
<path d="M0 0 C3.59721356 1.4954708 5.63097221 3.52706308 8.1875 6.4375 C8.97769531 7.33597656 9.76789063 8.23445313 10.58203125 9.16015625 C13.64772099 12.76073208 16.61718964 16.43343739 19.58203125 20.1171875 C22.75252922 23.89719961 26.11051396 27.48892126 29.54638672 31.02880859 C33 34.67531972 33 34.67531972 33 38 C27.68794271 41.01821437 27.68794271 41.01821437 25.08203125 40.94921875 C21.95274377 39.52254547 20.38261884 36.97441826 18.4375 34.25 C17.55896197 33.06029929 16.67734907 31.87286421 15.79296875 30.6875 C15.10920166 29.77097656 15.10920166 29.77097656 14.41162109 28.8359375 C12.13669916 25.87720126 9.69360677 23.06957851 7.25 20.25 C3.08331778 15.41406171 -0.664168 10.44711808 -4 5 C-2.68 3.35 -1.36 1.7 0 0 Z " fill="#EF7F22" transform="translate(1568,460)"/>
<path d="M0 0 C1.19109375 0.20496094 2.3821875 0.40992188 3.609375 0.62109375 C18.7140366 3.06923141 33.71601635 3.69809003 49 4 C49 6.97 49 9.94 49 13 C32.39891578 13.75269399 16.37038333 11.45107581 0 9 C0 6.03 0 3.06 0 0 Z " fill="#EF7F22" transform="translate(600,1092)"/>
<path d="M0 0 C2.97 0 5.94 0 9 0 C8.855625 1.11890625 8.71125 2.2378125 8.5625 3.390625 C6.67263496 18.54947206 5.62280415 33.74129833 5 49 C2.03 49 -0.94 49 -4 49 C-4.08171506 42.41683082 -3.83907072 36.03315094 -3.125 29.4921875 C-3.03621582 28.64069122 -2.94743164 27.78919495 -2.85595703 26.91189575 C-2.57546436 24.23239588 -2.28786784 21.55371648 -2 18.875 C-1.80681808 17.04171651 -1.61410565 15.20838348 -1.421875 13.375 C-0.95333267 8.91607659 -0.47842455 4.45787346 0 0 Z " fill="#EF7F22" transform="translate(4,592)"/>
<path d="M0 0 C0.350625 0.495 0.70125 0.99 1.0625 1.5 C0.7325 2.49 0.4025 3.48 0.0625 4.5 C-2.48389037 5.51732303 -4.94173348 6.34688181 -7.5625 7.125 C-16.34341846 9.85990714 -24.83230246 13.15089492 -33.31884766 16.69189453 C-34.2526123 17.07071777 -35.18637695 17.44954102 -36.1484375 17.83984375 C-36.97649902 18.18394287 -37.80456055 18.52804199 -38.65771484 18.88256836 C-41.22952038 19.57908755 -42.48406828 19.49308721 -44.9375 18.5 C-46.6875 16.4375 -46.6875 16.4375 -47.9375 14.5 C-38.11039682 7.8700708 -11.38639402 -8.81527279 0 0 Z " fill="#EF7F22" transform="translate(579.9375,393.5)"/>
<path d="M0 0 C2 2 2 2 2 5 C0.78437378 5.54358154 0.78437378 5.54358154 -0.45581055 6.09814453 C-3.52948969 7.47302157 -6.60285472 8.84859636 -9.67602539 10.22460938 C-10.99361301 10.81439735 -12.31131704 11.40392536 -13.62915039 11.99316406 C-15.54866479 12.85148947 -17.46773085 13.7108107 -19.38671875 14.5703125 C-20.33730667 14.99512909 -20.33730667 14.99512909 -21.30709839 15.42852783 C-24.4698218 16.84630213 -27.62008716 18.28477007 -30.75244141 19.76855469 C-31.91308105 20.31672852 -33.0737207 20.86490234 -34.26953125 21.4296875 C-35.30311768 21.92452637 -36.3367041 22.41936523 -37.40161133 22.92919922 C-40 24 -40 24 -43 24 C-44.32 21.03 -45.64 18.06 -47 15 C-44.85757812 14.27296875 -44.85757812 14.27296875 -42.671875 13.53125 C-40.69747854 12.85544531 -38.72355495 12.17825822 -36.75 11.5 C-35.20252075 10.96838257 -35.20252075 10.96838257 -33.6237793 10.42602539 C-25.7274518 7.67950297 -17.97334134 4.66618177 -10.29785156 1.3515625 C-9.52538086 1.02800781 -8.75291016 0.70445313 -7.95703125 0.37109375 C-7.28647705 0.08161865 -6.61592285 -0.20785645 -5.92504883 -0.50610352 C-3.56222711 -1.11231637 -2.26762939 -0.8582849 0 0 Z " fill="#EF7F22" transform="translate(1635,1429)"/>
<path d="M0 0 C1.98171827 1.73867735 2.31266736 2.87625516 2.65625 5.453125 C1.68429687 5.94039062 0.71234375 6.42765625 -0.2890625 6.9296875 C-10.22833299 12.01128178 -19.61131319 17.66126204 -28.85400391 23.93017578 C-29.7413623 24.51653809 -30.6287207 25.10290039 -31.54296875 25.70703125 C-32.32502686 26.23627197 -33.10708496 26.7655127 -33.9128418 27.31079102 C-36.87449502 28.70253305 -39.10980409 28.65870091 -42.34375 28.453125 C-43.66375 25.483125 -44.98375 22.513125 -46.34375 19.453125 C-45.05726562 19.21851563 -43.77078125 18.98390625 -42.4453125 18.7421875 C-37.09035509 17.54731424 -32.55878256 15.35857475 -27.71875 12.828125 C-26.85572266 12.38952148 -25.99269531 11.95091797 -25.10351562 11.49902344 C-20.97570545 9.38935549 -16.89099805 7.219647 -12.8515625 4.9453125 C-11.8298999 4.37611084 -11.8298999 4.37611084 -10.78759766 3.79541016 C-9.52086357 3.08360806 -8.26212927 2.35731742 -7.01318359 1.61474609 C-2.93357306 -0.68450038 -2.93357306 -0.68450038 0 0 Z " fill="#EF7F22" transform="translate(1722.34375,1384.546875)"/>
<path d="M0 0 C3.6677272 1.22257573 4.18043429 2.67183805 5.85522461 6.015625 C6.19175049 6.73234375 6.52827637 7.4490625 6.875 8.1875 C7.22506104 8.93128906 7.57512207 9.67507813 7.93579102 10.44140625 C13.32626762 22.55539466 15.73166277 35.86269648 17 49 C14.03 49 11.06 49 8 49 C7.92523437 47.98164062 7.85046875 46.96328125 7.7734375 45.9140625 C7.05698563 37.73538375 5.73002221 30.1145821 3.125 22.3125 C2.88056152 21.5714502 2.63612305 20.83040039 2.38427734 20.06689453 C1.17802666 16.62998145 -0.11446019 13.64559314 -2.19921875 10.6484375 C-4 8 -4 8 -3.9375 5.3125 C-2.95882973 2.89844667 -1.99365392 1.6469315 0 0 Z " fill="#EF7F22" transform="translate(1620,540)"/>
<path d="M0 0 C16.36350314 2.3072843 32.63826469 4.70039762 48 11 C48 12.32 48 13.64 48 15 C47.34 15.66 46.68 16.32 46 17 C39.51455762 16.5794423 33.259094 15.00889079 26.9375 13.5625 C17.98377882 11.55740019 9.12559323 9.96590007 0 9 C0 6.03 0 3.06 0 0 Z " fill="#EF7F22" transform="translate(1508,12)"/>
<path d="M0 0 C1.65 0 3.3 0 5 0 C9.52530679 10.45764173 9.222413 21.98569903 9.3125 33.1875 C9.33006348 34.39422363 9.34762695 35.60094727 9.36572266 36.84423828 C9.36491699 37.98231934 9.36411133 39.12040039 9.36328125 40.29296875 C9.36626221 41.3193042 9.36924316 42.34563965 9.37231445 43.40307617 C9 46 9 46 7.60229492 47.85668945 C6 49 6 49 4 49 C0.54238751 32.64701513 -0.18578491 16.67935656 0 0 Z " fill="#EF7F22" transform="translate(4,880)"/>
</svg>
